<?xml version="1.0" encoding="utf-8" standalone="no"?>
<!DOCTYPE svg PUBLIC "-//W3C//DTD SVG 1.1//EN"
  "http://www.w3.org/Graphics/SVG/1.1/DTD/svg11.dtd">
<svg xmlns:xlink="http://www.w3.org/1999/xlink" width="423.36pt" height="243.96pt" viewBox="0 0 423.36 243.96" xmlns="http://www.w3.org/2000/svg" version="1.1">
 <metadata>
  <rdf:RDF xmlns:dc="http://purl.org/dc/elements/1.1/" xmlns:cc="http://creativecommons.org/ns#" xmlns:rdf="http://www.w3.org/1999/02/22-rdf-syntax-ns#">
   <cc:Work>
    <dc:type rdf:resource="http://purl.org/dc/dcmitype/StillImage"/>
    <dc:date>2026-03-25T22:32:52.384882</dc:date>
    <dc:format>image/svg+xml</dc:format>
    <dc:creator>
     <cc:Agent>
      <dc:title>Matplotlib v3.10.8, https://matplotlib.org/</dc:title>
     </cc:Agent>
    </dc:creator>
   </cc:Work>
  </rdf:RDF>
 </metadata>
 <defs>
  <style type="text/css">*{stroke-linejoin: round; stroke-linecap: butt}</style>
 </defs>
 <g id="figure_1">
  <g id="patch_1">
   <path d="M 0 243.96 
L 423.36 243.96 
L 423.36 0 
L 0 0 
L 0 243.96 
z
" style="fill: none"/>
  </g>
  <g id="axes_1">
   <g id="patch_2">
    <path d="M 22.68 122.28 
C 27.453656 122.28 32.032438 120.383406 35.407922 117.007922 
C 38.783406 113.632438 40.68 109.053656 40.68 104.28 
C 40.68 99.506344 38.783406 94.927562 35.407922 91.552078 
C 32.032438 88.176594 27.453656 86.28 22.68 86.28 
C 17.906344 86.28 13.327562 88.176594 9.952078 91.552078 
C 6.576594 94.927562 4.68 99.506344 4.68 104.28 
C 4.68 109.053656 6.576594 113.632438 9.952078 117.007922 
C 13.327562 120.383406 17.906344 122.28 22.68 122.28 
L 22.68 122.28 
z
" clip-path="url(#p7dc0749cb4)" style="fill: none; stroke: #000000; stroke-width: 2; stroke-linejoin: miter"/>
   </g>
   <g id="patch_3">
    <path d="M 364.68 176.28 
C 369.453656 176.28 374.032438 174.383406 377.407922 171.007922 
C 380.783406 167.632438 382.68 163.053656 382.68 158.28 
C 382.68 153.506344 380.783406 148.927562 377.407922 145.552078 
C 374.032438 142.176594 369.453656 140.28 364.68 140.28 
C 359.906344 140.28 355.327562 142.176594 351.952078 145.552078 
C 348.576594 148.927562 346.68 153.506344 346.68 158.28 
C 346.68 163.053656 348.576594 167.632438 351.952078 171.007922 
C 355.327562 174.383406 359.906344 176.28 364.68 176.28 
L 364.68 176.28 
z
" clip-path="url(#p7dc0749cb4)" style="fill: none; stroke: #000000; stroke-width: 2; stroke-linejoin: miter"/>
   </g>
   <g id="patch_4">
    <path d="M 250.38 167.28 
L 262.98 176.28 
L 250.38 185.28 
L 250.38 167.28 
z
" clip-path="url(#p7dc0749cb4)" style="fill: none; stroke: #000000; stroke-width: 2; stroke-linecap: round"/>
   </g>
   <g id="patch_5">
    <path d="M 364.68 230.28 
C 369.453656 230.28 374.032438 228.383406 377.407922 225.007922 
C 380.783406 221.632438 382.68 217.053656 382.68 212.28 
C 382.68 207.506344 380.783406 202.927562 377.407922 199.552078 
C 374.032438 196.176594 369.453656 194.28 364.68 194.28 
C 359.906344 194.28 355.327562 196.176594 351.952078 199.552078 
C 348.576594 202.927562 346.68 207.506344 346.68 212.28 
C 346.68 217.053656 348.576594 221.632438 351.952078 225.007922 
C 355.327562 228.383406 359.906344 230.28 364.68 230.28 
L 364.68 230.28 
z
" clip-path="url(#p7dc0749cb4)" style="fill: none; stroke: #000000; stroke-width: 2; stroke-linejoin: miter"/>
   </g>
   <g id="patch_6">
    <path d="M 250.38 221.28 
L 262.98 230.28 
L 250.38 239.28 
L 250.38 221.28 
z
" clip-path="url(#p7dc0749cb4)" style="fill: none; stroke: #000000; stroke-width: 2; stroke-linecap: round"/>
   </g>
   <g id="line2d_1">
    <path d="M 22.68 158.28 
L 22.68 122.28 
L 22.68 122.28 
M 22.68 86.28 
L 22.68 86.28 
L 22.68 50.28 
" clip-path="url(#p7dc0749cb4)" style="fill: none; stroke: #000000; stroke-width: 2; stroke-linecap: round"/>
   </g>
   <g id="line2d_2">
    <path d="M 26.28 113.28 
L 19.08 113.28 
" clip-path="url(#p7dc0749cb4)" style="fill: none; stroke: #000000; stroke-width: 2; stroke-linecap: round"/>
   </g>
   <g id="line2d_3">
    <path d="M 22.68 98.88 
L 22.68 91.68 
" clip-path="url(#p7dc0749cb4)" style="fill: none; stroke: #000000; stroke-width: 2; stroke-linecap: round"/>
   </g>
   <g id="line2d_4">
    <path d="M 26.28 95.28 
L 19.08 95.28 
" clip-path="url(#p7dc0749cb4)" style="fill: none; stroke: #000000; stroke-width: 2; stroke-linecap: round"/>
   </g>
   <g id="line2d_5">
    <path d="M 22.68 50.28 
L 58.68 50.28 
L 94.68 50.28 
" clip-path="url(#p7dc0749cb4)" style="fill: none; stroke: #000000; stroke-width: 2; stroke-linecap: round"/>
   </g>
   <g id="line2d_6">
    <path d="M 94.68 50.28 
L 148.68 50.28 
L 202.68 50.28 
" clip-path="url(#p7dc0749cb4)" style="fill: none; stroke: #000000; stroke-width: 2; stroke-linecap: round"/>
   </g>
   <g id="line2d_7">
    <path d="M 202.68 50.28 
L 238.68 50.28 
L 241.68 41.28 
L 247.68 59.28 
L 253.68 41.28 
L 259.68 59.28 
L 265.68 41.28 
L 271.68 59.28 
L 274.68 50.28 
L 310.68 50.28 
" clip-path="url(#p7dc0749cb4)" style="fill: none; stroke: #000000; stroke-width: 2; stroke-linecap: round"/>
   </g>
   <g id="line2d_8">
    <path d="M 310.68 50.28 
L 310.68 104.28 
L 310.68 158.28 
" clip-path="url(#p7dc0749cb4)" style="fill: none; stroke: #000000; stroke-width: 2; stroke-linecap: round"/>
   </g>
   <g id="line2d_9">
    <path d="M 310.68 158.28 
L 238.68 158.28 
L 166.68 158.28 
" clip-path="url(#p7dc0749cb4)" style="fill: none; stroke: #000000; stroke-width: 2; stroke-linecap: round"/>
   </g>
   <g id="line2d_10">
    <path d="M 166.68 158.28 
L 184.68 158.28 
L 202.68 158.28 
" clip-path="url(#p7dc0749cb4)" style="fill: none; stroke: #000000; stroke-width: 2; stroke-linecap: round"/>
   </g>
   <g id="line2d_11">
    <path d="M 202.68 158.28 
L 238.68 158.28 
M 247.32 154.68 
L 267.48 142.08 
M 274.68 158.28 
L 310.68 158.28 
" clip-path="url(#p7dc0749cb4)" style="fill: none; stroke: #000000; stroke-width: 2; stroke-linecap: round"/>
   </g>
   <g id="line2d_12">
    <path d="M 310.68 158.28 
L 338.76 158.28 
L 338.76 158.28 
M 390.6 158.28 
L 390.6 158.28 
L 418.68 158.28 
" clip-path="url(#p7dc0749cb4)" style="fill: none; stroke: #000000; stroke-width: 2; stroke-linecap: round"/>
   </g>
   <g id="line2d_13">
    <path d="M 346.68 166.2 
L 338.76 166.2 
L 338.76 150.36 
L 346.68 150.36 
" clip-path="url(#p7dc0749cb4)" style="fill: none; stroke: #000000; stroke-width: 2; stroke-linecap: round"/>
   </g>
   <g id="line2d_14">
    <path d="M 382.68 166.2 
L 390.6 166.2 
L 390.6 150.36 
L 382.68 150.36 
" clip-path="url(#p7dc0749cb4)" style="fill: none; stroke: #000000; stroke-width: 2; stroke-linecap: round"/>
   </g>
   <g id="line2d_15">
    <path d="M 418.68 158.28 
L 418.68 167.28 
L 418.68 176.28 
" clip-path="url(#p7dc0749cb4)" style="fill: none; stroke: #000000; stroke-width: 2; stroke-linecap: round"/>
   </g>
   <g id="line2d_16">
    <path d="M 418.68 176.28 
L 364.68 176.28 
L 310.68 176.28 
" clip-path="url(#p7dc0749cb4)" style="fill: none; stroke: #000000; stroke-width: 2; stroke-linecap: round"/>
   </g>
   <g id="line2d_17">
    <path d="M 310.68 176.28 
L 262.98 176.28 
M 262.98 167.28 
L 262.98 185.28 
M 250.38 176.28 
L 202.68 176.28 
" clip-path="url(#p7dc0749cb4)" style="fill: none; stroke: #000000; stroke-width: 2; stroke-linecap: round"/>
   </g>
   <g id="line2d_18">
    <path d="M 202.68 158.28 
L 202.68 185.28 
L 202.68 212.28 
" clip-path="url(#p7dc0749cb4)" style="fill: none; stroke: #000000; stroke-width: 2; stroke-linecap: round"/>
   </g>
   <g id="line2d_19">
    <path d="M 202.68 212.28 
L 238.68 212.28 
M 247.32 208.68 
L 267.48 196.08 
M 274.68 212.28 
L 310.68 212.28 
" clip-path="url(#p7dc0749cb4)" style="fill: none; stroke: #000000; stroke-width: 2; stroke-linecap: round"/>
   </g>
   <g id="line2d_20">
    <path d="M 310.68 212.28 
L 338.76 212.28 
L 338.76 212.28 
M 390.6 212.28 
L 390.6 212.28 
L 418.68 212.28 
" clip-path="url(#p7dc0749cb4)" style="fill: none; stroke: #000000; stroke-width: 2; stroke-linecap: round"/>
   </g>
   <g id="line2d_21">
    <path d="M 346.68 220.2 
L 338.76 220.2 
L 338.76 204.36 
L 346.68 204.36 
" clip-path="url(#p7dc0749cb4)" style="fill: none; stroke: #000000; stroke-width: 2; stroke-linecap: round"/>
   </g>
   <g id="line2d_22">
    <path d="M 382.68 220.2 
L 390.6 220.2 
L 390.6 204.36 
L 382.68 204.36 
" clip-path="url(#p7dc0749cb4)" style="fill: none; stroke: #000000; stroke-width: 2; stroke-linecap: round"/>
   </g>
   <g id="line2d_23">
    <path d="M 418.68 212.28 
L 418.68 221.28 
L 418.68 230.28 
" clip-path="url(#p7dc0749cb4)" style="fill: none; stroke: #000000; stroke-width: 2; stroke-linecap: round"/>
   </g>
   <g id="line2d_24">
    <path d="M 418.68 230.28 
L 364.68 230.28 
L 310.68 230.28 
" clip-path="url(#p7dc0749cb4)" style="fill: none; stroke: #000000; stroke-width: 2; stroke-linecap: round"/>
   </g>
   <g id="line2d_25">
    <path d="M 310.68 230.28 
L 262.98 230.28 
M 262.98 221.28 
L 262.98 239.28 
M 250.38 230.28 
L 202.68 230.28 
" clip-path="url(#p7dc0749cb4)" style="fill: none; stroke: #000000; stroke-width: 2; stroke-linecap: round"/>
   </g>
   <g id="line2d_26">
    <path d="M 22.68 158.28 
L 22.68 172.68 
L 13.68 172.68 
L 31.68 172.68 
M 16.38 177 
L 28.98 177 
M 20.88 181.32 
L 24.48 181.32 
" clip-path="url(#p7dc0749cb4)" style="fill: none; stroke: #000000; stroke-width: 2; stroke-linecap: round"/>
   </g>
   <g id="text_1">
    <!-- 12V -->
    <g transform="translate(11.918906 170.238281) scale(0.11 -0.11)">
     <defs>
      <path id="DejaVuSans-31" d="M 794 531 
L 1825 531 
L 1825 4091 
L 703 3866 
L 703 4441 
L 1819 4666 
L 2450 4666 
L 2450 531 
L 3481 531 
L 3481 0 
L 794 0 
L 794 531 
z
" transform="scale(0.015625)"/>
      <path id="DejaVuSans-32" d="M 1228 531 
L 3431 531 
L 3431 0 
L 469 0 
L 469 531 
Q 828 903 1448 1529 
Q 2069 2156 2228 2338 
Q 2531 2678 2651 2914 
Q 2772 3150 2772 3378 
Q 2772 3750 2511 3984 
Q 2250 4219 1831 4219 
Q 1534 4219 1204 4116 
Q 875 4013 500 3803 
L 500 4441 
Q 881 4594 1212 4672 
Q 1544 4750 1819 4750 
Q 2544 4750 2975 4387 
Q 3406 4025 3406 3419 
Q 3406 3131 3298 2873 
Q 3191 2616 2906 2266 
Q 2828 2175 2409 1742 
Q 1991 1309 1228 531 
z
" transform="scale(0.015625)"/>
      <path id="DejaVuSans-56" d="M 1831 0 
L 50 4666 
L 709 4666 
L 2188 738 
L 3669 4666 
L 4325 4666 
L 2547 0 
L 1831 0 
z
" transform="scale(0.015625)"/>
     </defs>
     <use xlink:href="#DejaVuSans-31"/>
     <use xlink:href="#DejaVuSans-32" transform="translate(63.623047 0)"/>
     <use xlink:href="#DejaVuSans-56" transform="translate(127.246094 0)"/>
    </g>
    <!-- 2A -->
    <g transform="translate(15.418281 180.884219) scale(0.11 -0.11)">
     <defs>
      <path id="DejaVuSans-41" d="M 2188 4044 
L 1331 1722 
L 3047 1722 
L 2188 4044 
z
M 1831 4666 
L 2547 4666 
L 4325 0 
L 3669 0 
L 3244 1197 
L 1141 1197 
L 716 0 
L 50 0 
L 1831 4666 
z
" transform="scale(0.015625)"/>
     </defs>
     <use xlink:href="#DejaVuSans-32"/>
     <use xlink:href="#DejaVuSans-41" transform="translate(63.623047 0)"/>
    </g>
   </g>
   <g id="text_2">
    <!-- Station-485 -->
    <g transform="translate(224.644219 14.100469) scale(0.11 -0.11)">
     <defs>
      <path id="DejaVuSans-53" d="M 3425 4513 
L 3425 3897 
Q 3066 4069 2747 4153 
Q 2428 4238 2131 4238 
Q 1616 4238 1336 4038 
Q 1056 3838 1056 3469 
Q 1056 3159 1242 3001 
Q 1428 2844 1947 2747 
L 2328 2669 
Q 3034 2534 3370 2195 
Q 3706 1856 3706 1288 
Q 3706 609 3251 259 
Q 2797 -91 1919 -91 
Q 1588 -91 1214 -16 
Q 841 59 441 206 
L 441 856 
Q 825 641 1194 531 
Q 1563 422 1919 422 
Q 2459 422 2753 634 
Q 3047 847 3047 1241 
Q 3047 1584 2836 1778 
Q 2625 1972 2144 2069 
L 1759 2144 
Q 1053 2284 737 2584 
Q 422 2884 422 3419 
Q 422 4038 858 4394 
Q 1294 4750 2059 4750 
Q 2388 4750 2728 4690 
Q 3069 4631 3425 4513 
z
" transform="scale(0.015625)"/>
      <path id="DejaVuSans-74" d="M 1172 4494 
L 1172 3500 
L 2356 3500 
L 2356 3053 
L 1172 3053 
L 1172 1153 
Q 1172 725 1289 603 
Q 1406 481 1766 481 
L 2356 481 
L 2356 0 
L 1766 0 
Q 1100 0 847 248 
Q 594 497 594 1153 
L 594 3053 
L 172 3053 
L 172 3500 
L 594 3500 
L 594 4494 
L 1172 4494 
z
" transform="scale(0.015625)"/>
      <path id="DejaVuSans-61" d="M 2194 1759 
Q 1497 1759 1228 1600 
Q 959 1441 959 1056 
Q 959 750 1161 570 
Q 1363 391 1709 391 
Q 2188 391 2477 730 
Q 2766 1069 2766 1631 
L 2766 1759 
L 2194 1759 
z
M 3341 1997 
L 3341 0 
L 2766 0 
L 2766 531 
Q 2569 213 2275 61 
Q 1981 -91 1556 -91 
Q 1019 -91 701 211 
Q 384 513 384 1019 
Q 384 1609 779 1909 
Q 1175 2209 1959 2209 
L 2766 2209 
L 2766 2266 
Q 2766 2663 2505 2880 
Q 2244 3097 1772 3097 
Q 1472 3097 1187 3025 
Q 903 2953 641 2809 
L 641 3341 
Q 956 3463 1253 3523 
Q 1550 3584 1831 3584 
Q 2591 3584 2966 3190 
Q 3341 2797 3341 1997 
z
" transform="scale(0.015625)"/>
      <path id="DejaVuSans-69" d="M 603 3500 
L 1178 3500 
L 1178 0 
L 603 0 
L 603 3500 
z
M 603 4863 
L 1178 4863 
L 1178 4134 
L 603 4134 
L 603 4863 
z
" transform="scale(0.015625)"/>
      <path id="DejaVuSans-6f" d="M 1959 3097 
Q 1497 3097 1228 2736 
Q 959 2375 959 1747 
Q 959 1119 1226 758 
Q 1494 397 1959 397 
Q 2419 397 2687 759 
Q 2956 1122 2956 1747 
Q 2956 2369 2687 2733 
Q 2419 3097 1959 3097 
z
M 1959 3584 
Q 2709 3584 3137 3096 
Q 3566 2609 3566 1747 
Q 3566 888 3137 398 
Q 2709 -91 1959 -91 
Q 1206 -91 779 398 
Q 353 888 353 1747 
Q 353 2609 779 3096 
Q 1206 3584 1959 3584 
z
" transform="scale(0.015625)"/>
      <path id="DejaVuSans-6e" d="M 3513 2113 
L 3513 0 
L 2938 0 
L 2938 2094 
Q 2938 2591 2744 2837 
Q 2550 3084 2163 3084 
Q 1697 3084 1428 2787 
Q 1159 2491 1159 1978 
L 1159 0 
L 581 0 
L 581 3500 
L 1159 3500 
L 1159 2956 
Q 1366 3272 1645 3428 
Q 1925 3584 2291 3584 
Q 2894 3584 3203 3211 
Q 3513 2838 3513 2113 
z
" transform="scale(0.015625)"/>
      <path id="DejaVuSans-2d" d="M 313 2009 
L 1997 2009 
L 1997 1497 
L 313 1497 
L 313 2009 
z
" transform="scale(0.015625)"/>
      <path id="DejaVuSans-34" d="M 2419 4116 
L 825 1625 
L 2419 1625 
L 2419 4116 
z
M 2253 4666 
L 3047 4666 
L 3047 1625 
L 3713 1625 
L 3713 1100 
L 3047 1100 
L 3047 0 
L 2419 0 
L 2419 1100 
L 313 1100 
L 313 1709 
L 2253 4666 
z
" transform="scale(0.015625)"/>
      <path id="DejaVuSans-38" d="M 2034 2216 
Q 1584 2216 1326 1975 
Q 1069 1734 1069 1313 
Q 1069 891 1326 650 
Q 1584 409 2034 409 
Q 2484 409 2743 651 
Q 3003 894 3003 1313 
Q 3003 1734 2745 1975 
Q 2488 2216 2034 2216 
z
M 1403 2484 
Q 997 2584 770 2862 
Q 544 3141 544 3541 
Q 544 4100 942 4425 
Q 1341 4750 2034 4750 
Q 2731 4750 3128 4425 
Q 3525 4100 3525 3541 
Q 3525 3141 3298 2862 
Q 3072 2584 2669 2484 
Q 3125 2378 3379 2068 
Q 3634 1759 3634 1313 
Q 3634 634 3220 271 
Q 2806 -91 2034 -91 
Q 1263 -91 848 271 
Q 434 634 434 1313 
Q 434 1759 690 2068 
Q 947 2378 1403 2484 
z
M 1172 3481 
Q 1172 3119 1398 2916 
Q 1625 2713 2034 2713 
Q 2441 2713 2670 2916 
Q 2900 3119 2900 3481 
Q 2900 3844 2670 4047 
Q 2441 4250 2034 4250 
Q 1625 4250 1398 4047 
Q 1172 3844 1172 3481 
z
" transform="scale(0.015625)"/>
      <path id="DejaVuSans-35" d="M 691 4666 
L 3169 4666 
L 3169 4134 
L 1269 4134 
L 1269 2991 
Q 1406 3038 1543 3061 
Q 1681 3084 1819 3084 
Q 2600 3084 3056 2656 
Q 3513 2228 3513 1497 
Q 3513 744 3044 326 
Q 2575 -91 1722 -91 
Q 1428 -91 1123 -41 
Q 819 9 494 109 
L 494 744 
Q 775 591 1075 516 
Q 1375 441 1709 441 
Q 2250 441 2565 725 
Q 2881 1009 2881 1497 
Q 2881 1984 2565 2268 
Q 2250 2553 1709 2553 
Q 1456 2553 1204 2497 
Q 953 2441 691 2322 
L 691 4666 
z
" transform="scale(0.015625)"/>
     </defs>
     <use xlink:href="#DejaVuSans-53"/>
     <use xlink:href="#DejaVuSans-74" transform="translate(63.476562 0)"/>
     <use xlink:href="#DejaVuSans-61" transform="translate(102.685547 0)"/>
     <use xlink:href="#DejaVuSans-74" transform="translate(163.964844 0)"/>
     <use xlink:href="#DejaVuSans-69" transform="translate(203.173828 0)"/>
     <use xlink:href="#DejaVuSans-6f" transform="translate(230.957031 0)"/>
     <use xlink:href="#DejaVuSans-6e" transform="translate(292.138672 0)"/>
     <use xlink:href="#DejaVuSans-2d" transform="translate(355.517578 0)"/>
     <use xlink:href="#DejaVuSans-34" transform="translate(391.601562 0)"/>
     <use xlink:href="#DejaVuSans-38" transform="translate(455.224609 0)"/>
     <use xlink:href="#DejaVuSans-35" transform="translate(518.847656 0)"/>
    </g>
    <!-- (PWR485) -->
    <g transform="translate(229.314062 24.746406) scale(0.11 -0.11)">
     <defs>
      <path id="DejaVuSans-28" d="M 1984 4856 
Q 1566 4138 1362 3434 
Q 1159 2731 1159 2009 
Q 1159 1288 1364 580 
Q 1569 -128 1984 -844 
L 1484 -844 
Q 1016 -109 783 600 
Q 550 1309 550 2009 
Q 550 2706 781 3412 
Q 1013 4119 1484 4856 
L 1984 4856 
z
" transform="scale(0.015625)"/>
      <path id="DejaVuSans-50" d="M 1259 4147 
L 1259 2394 
L 2053 2394 
Q 2494 2394 2734 2622 
Q 2975 2850 2975 3272 
Q 2975 3691 2734 3919 
Q 2494 4147 2053 4147 
L 1259 4147 
z
M 628 4666 
L 2053 4666 
Q 2838 4666 3239 4311 
Q 3641 3956 3641 3272 
Q 3641 2581 3239 2228 
Q 2838 1875 2053 1875 
L 1259 1875 
L 1259 0 
L 628 0 
L 628 4666 
z
" transform="scale(0.015625)"/>
      <path id="DejaVuSans-57" d="M 213 4666 
L 850 4666 
L 1831 722 
L 2809 4666 
L 3519 4666 
L 4500 722 
L 5478 4666 
L 6119 4666 
L 4947 0 
L 4153 0 
L 3169 4050 
L 2175 0 
L 1381 0 
L 213 4666 
z
" transform="scale(0.015625)"/>
      <path id="DejaVuSans-52" d="M 2841 2188 
Q 3044 2119 3236 1894 
Q 3428 1669 3622 1275 
L 4263 0 
L 3584 0 
L 2988 1197 
Q 2756 1666 2539 1819 
Q 2322 1972 1947 1972 
L 1259 1972 
L 1259 0 
L 628 0 
L 628 4666 
L 2053 4666 
Q 2853 4666 3247 4331 
Q 3641 3997 3641 3322 
Q 3641 2881 3436 2590 
Q 3231 2300 2841 2188 
z
M 1259 4147 
L 1259 2491 
L 2053 2491 
Q 2509 2491 2742 2702 
Q 2975 2913 2975 3322 
Q 2975 3731 2742 3939 
Q 2509 4147 2053 4147 
L 1259 4147 
z
" transform="scale(0.015625)"/>
      <path id="DejaVuSans-29" d="M 513 4856 
L 1013 4856 
Q 1481 4119 1714 3412 
Q 1947 2706 1947 2009 
Q 1947 1309 1714 600 
Q 1481 -109 1013 -844 
L 513 -844 
Q 928 -128 1133 580 
Q 1338 1288 1338 2009 
Q 1338 2731 1133 3434 
Q 928 4138 513 4856 
z
" transform="scale(0.015625)"/>
     </defs>
     <use xlink:href="#DejaVuSans-28"/>
     <use xlink:href="#DejaVuSans-50" transform="translate(39.013672 0)"/>
     <use xlink:href="#DejaVuSans-57" transform="translate(99.316406 0)"/>
     <use xlink:href="#DejaVuSans-52" transform="translate(198.193359 0)"/>
     <use xlink:href="#DejaVuSans-34" transform="translate(267.675781 0)"/>
     <use xlink:href="#DejaVuSans-38" transform="translate(331.298828 0)"/>
     <use xlink:href="#DejaVuSans-35" transform="translate(394.921875 0)"/>
     <use xlink:href="#DejaVuSans-29" transform="translate(458.544922 0)"/>
    </g>
    <!-- ~161mA -->
    <g transform="translate(232.453359 35.392344) scale(0.11 -0.11)">
     <defs>
      <path id="DejaVuSans-7e" d="M 4684 2553 
L 4684 1997 
Q 4356 1750 4076 1644 
Q 3797 1538 3494 1538 
Q 3150 1538 2694 1722 
Q 2659 1734 2644 1741 
Q 2622 1750 2575 1766 
Q 2091 1959 1797 1959 
Q 1522 1959 1253 1839 
Q 984 1719 678 1459 
L 678 2016 
Q 1006 2263 1286 2370 
Q 1566 2478 1869 2478 
Q 2213 2478 2672 2291 
Q 2703 2278 2719 2272 
Q 2744 2263 2788 2247 
Q 3272 2053 3566 2053 
Q 3834 2053 4098 2172 
Q 4363 2291 4684 2553 
z
" transform="scale(0.015625)"/>
      <path id="DejaVuSans-36" d="M 2113 2584 
Q 1688 2584 1439 2293 
Q 1191 2003 1191 1497 
Q 1191 994 1439 701 
Q 1688 409 2113 409 
Q 2538 409 2786 701 
Q 3034 994 3034 1497 
Q 3034 2003 2786 2293 
Q 2538 2584 2113 2584 
z
M 3366 4563 
L 3366 3988 
Q 3128 4100 2886 4159 
Q 2644 4219 2406 4219 
Q 1781 4219 1451 3797 
Q 1122 3375 1075 2522 
Q 1259 2794 1537 2939 
Q 1816 3084 2150 3084 
Q 2853 3084 3261 2657 
Q 3669 2231 3669 1497 
Q 3669 778 3244 343 
Q 2819 -91 2113 -91 
Q 1303 -91 875 529 
Q 447 1150 447 2328 
Q 447 3434 972 4092 
Q 1497 4750 2381 4750 
Q 2619 4750 2861 4703 
Q 3103 4656 3366 4563 
z
" transform="scale(0.015625)"/>
      <path id="DejaVuSans-6d" d="M 3328 2828 
Q 3544 3216 3844 3400 
Q 4144 3584 4550 3584 
Q 5097 3584 5394 3201 
Q 5691 2819 5691 2113 
L 5691 0 
L 5113 0 
L 5113 2094 
Q 5113 2597 4934 2840 
Q 4756 3084 4391 3084 
Q 3944 3084 3684 2787 
Q 3425 2491 3425 1978 
L 3425 0 
L 2847 0 
L 2847 2094 
Q 2847 2600 2669 2842 
Q 2491 3084 2119 3084 
Q 1678 3084 1418 2786 
Q 1159 2488 1159 1978 
L 1159 0 
L 581 0 
L 581 3500 
L 1159 3500 
L 1159 2956 
Q 1356 3278 1631 3431 
Q 1906 3584 2284 3584 
Q 2666 3584 2933 3390 
Q 3200 3197 3328 2828 
z
" transform="scale(0.015625)"/>
     </defs>
     <use xlink:href="#DejaVuSans-7e"/>
     <use xlink:href="#DejaVuSans-31" transform="translate(83.789062 0)"/>
     <use xlink:href="#DejaVuSans-36" transform="translate(147.412109 0)"/>
     <use xlink:href="#DejaVuSans-31" transform="translate(211.035156 0)"/>
     <use xlink:href="#DejaVuSans-6d" transform="translate(274.658203 0)"/>
     <use xlink:href="#DejaVuSans-41" transform="translate(372.070312 0)"/>
    </g>
   </g>
   <g id="patch_7">
    <path d="M 243 162.6 
C 244.145677 162.6 245.244585 162.144818 246.054701 161.334701 
C 246.864818 160.524585 247.32 159.425677 247.32 158.28 
C 247.32 157.134323 246.864818 156.035415 246.054701 155.225299 
C 245.244585 154.415182 244.145677 153.96 243 153.96 
C 241.854323 153.96 240.755415 154.415182 239.945299 155.225299 
C 239.135182 156.035415 238.68 157.134323 238.68 158.28 
C 238.68 159.425677 239.135182 160.524585 239.945299 161.334701 
C 240.755415 162.144818 241.854323 162.6 243 162.6 
z
" clip-path="url(#p7dc0749cb4)" style="fill: #ffffff; stroke: #000000; stroke-width: 2; stroke-linejoin: miter"/>
   </g>
   <g id="patch_8">
    <path d="M 270.36 162.6 
C 271.505677 162.6 272.604585 162.144818 273.414701 161.334701 
C 274.224818 160.524585 274.68 159.425677 274.68 158.28 
C 274.68 157.134323 274.224818 156.035415 273.414701 155.225299 
C 272.604585 154.415182 271.505677 153.96 270.36 153.96 
C 269.214323 153.96 268.115415 154.415182 267.305299 155.225299 
C 266.495182 156.035415 266.04 157.134323 266.04 158.28 
C 266.04 159.425677 266.495182 160.524585 267.305299 161.334701 
C 268.115415 162.144818 269.214323 162.6 270.36 162.6 
z
" clip-path="url(#p7dc0749cb4)" style="fill: #ffffff; stroke: #000000; stroke-width: 2; stroke-linejoin: miter"/>
   </g>
   <g id="text_3">
    <!-- Relay 1 -->
    <g transform="translate(236.320547 136.192344) scale(0.11 -0.11)">
     <defs>
      <path id="DejaVuSans-65" d="M 3597 1894 
L 3597 1613 
L 953 1613 
Q 991 1019 1311 708 
Q 1631 397 2203 397 
Q 2534 397 2845 478 
Q 3156 559 3463 722 
L 3463 178 
Q 3153 47 2828 -22 
Q 2503 -91 2169 -91 
Q 1331 -91 842 396 
Q 353 884 353 1716 
Q 353 2575 817 3079 
Q 1281 3584 2069 3584 
Q 2775 3584 3186 3129 
Q 3597 2675 3597 1894 
z
M 3022 2063 
Q 3016 2534 2758 2815 
Q 2500 3097 2075 3097 
Q 1594 3097 1305 2825 
Q 1016 2553 972 2059 
L 3022 2063 
z
" transform="scale(0.015625)"/>
      <path id="DejaVuSans-6c" d="M 603 4863 
L 1178 4863 
L 1178 0 
L 603 0 
L 603 4863 
z
" transform="scale(0.015625)"/>
      <path id="DejaVuSans-79" d="M 2059 -325 
Q 1816 -950 1584 -1140 
Q 1353 -1331 966 -1331 
L 506 -1331 
L 506 -850 
L 844 -850 
Q 1081 -850 1212 -737 
Q 1344 -625 1503 -206 
L 1606 56 
L 191 3500 
L 800 3500 
L 1894 763 
L 2988 3500 
L 3597 3500 
L 2059 -325 
z
" transform="scale(0.015625)"/>
      <path id="DejaVuSans-20" transform="scale(0.015625)"/>
     </defs>
     <use xlink:href="#DejaVuSans-52"/>
     <use xlink:href="#DejaVuSans-65" transform="translate(64.982422 0)"/>
     <use xlink:href="#DejaVuSans-6c" transform="translate(126.505859 0)"/>
     <use xlink:href="#DejaVuSans-61" transform="translate(154.289062 0)"/>
     <use xlink:href="#DejaVuSans-79" transform="translate(215.568359 0)"/>
     <use xlink:href="#DejaVuSans-20" transform="translate(274.748047 0)"/>
     <use xlink:href="#DejaVuSans-31" transform="translate(306.535156 0)"/>
    </g>
   </g>
   <g id="text_4">
    <!-- Pump 1 -->
    <g transform="translate(343.877969 123.746406) scale(0.11 -0.11)">
     <defs>
      <path id="DejaVuSans-75" d="M 544 1381 
L 544 3500 
L 1119 3500 
L 1119 1403 
Q 1119 906 1312 657 
Q 1506 409 1894 409 
Q 2359 409 2629 706 
Q 2900 1003 2900 1516 
L 2900 3500 
L 3475 3500 
L 3475 0 
L 2900 0 
L 2900 538 
Q 2691 219 2414 64 
Q 2138 -91 1772 -91 
Q 1169 -91 856 284 
Q 544 659 544 1381 
z
M 1991 3584 
L 1991 3584 
z
" transform="scale(0.015625)"/>
      <path id="DejaVuSans-70" d="M 1159 525 
L 1159 -1331 
L 581 -1331 
L 581 3500 
L 1159 3500 
L 1159 2969 
Q 1341 3281 1617 3432 
Q 1894 3584 2278 3584 
Q 2916 3584 3314 3078 
Q 3713 2572 3713 1747 
Q 3713 922 3314 415 
Q 2916 -91 2278 -91 
Q 1894 -91 1617 61 
Q 1341 213 1159 525 
z
M 3116 1747 
Q 3116 2381 2855 2742 
Q 2594 3103 2138 3103 
Q 1681 3103 1420 2742 
Q 1159 2381 1159 1747 
Q 1159 1113 1420 752 
Q 1681 391 2138 391 
Q 2594 391 2855 752 
Q 3116 1113 3116 1747 
z
" transform="scale(0.015625)"/>
     </defs>
     <use xlink:href="#DejaVuSans-50"/>
     <use xlink:href="#DejaVuSans-75" transform="translate(58.552734 0)"/>
     <use xlink:href="#DejaVuSans-6d" transform="translate(121.931641 0)"/>
     <use xlink:href="#DejaVuSans-70" transform="translate(219.34375 0)"/>
     <use xlink:href="#DejaVuSans-20" transform="translate(282.820312 0)"/>
     <use xlink:href="#DejaVuSans-31" transform="translate(314.607422 0)"/>
    </g>
    <!-- 80mA -->
    <g transform="translate(348.561562 134.392344) scale(0.11 -0.11)">
     <defs>
      <path id="DejaVuSans-30" d="M 2034 4250 
Q 1547 4250 1301 3770 
Q 1056 3291 1056 2328 
Q 1056 1369 1301 889 
Q 1547 409 2034 409 
Q 2525 409 2770 889 
Q 3016 1369 3016 2328 
Q 3016 3291 2770 3770 
Q 2525 4250 2034 4250 
z
M 2034 4750 
Q 2819 4750 3233 4129 
Q 3647 3509 3647 2328 
Q 3647 1150 3233 529 
Q 2819 -91 2034 -91 
Q 1250 -91 836 529 
Q 422 1150 422 2328 
Q 422 3509 836 4129 
Q 1250 4750 2034 4750 
z
" transform="scale(0.015625)"/>
     </defs>
     <use xlink:href="#DejaVuSans-38"/>
     <use xlink:href="#DejaVuSans-30" transform="translate(63.623047 0)"/>
     <use xlink:href="#DejaVuSans-6d" transform="translate(127.246094 0)"/>
     <use xlink:href="#DejaVuSans-41" transform="translate(224.658203 0)"/>
    </g>
   </g>
   <g id="text_5">
    <!-- 1N4007 -->
    <g transform="translate(235.068437 161.392344) scale(0.11 -0.11)">
     <defs>
      <path id="DejaVuSans-4e" d="M 628 4666 
L 1478 4666 
L 3547 763 
L 3547 4666 
L 4159 4666 
L 4159 0 
L 3309 0 
L 1241 3903 
L 1241 0 
L 628 0 
L 628 4666 
z
" transform="scale(0.015625)"/>
      <path id="DejaVuSans-37" d="M 525 4666 
L 3525 4666 
L 3525 4397 
L 1831 0 
L 1172 0 
L 2766 4134 
L 525 4134 
L 525 4666 
z
" transform="scale(0.015625)"/>
     </defs>
     <use xlink:href="#DejaVuSans-31"/>
     <use xlink:href="#DejaVuSans-4e" transform="translate(63.623047 0)"/>
     <use xlink:href="#DejaVuSans-34" transform="translate(138.427734 0)"/>
     <use xlink:href="#DejaVuSans-30" transform="translate(202.050781 0)"/>
     <use xlink:href="#DejaVuSans-30" transform="translate(265.673828 0)"/>
     <use xlink:href="#DejaVuSans-37" transform="translate(329.296875 0)"/>
    </g>
   </g>
   <g id="patch_9">
    <path d="M 243 216.6 
C 244.145677 216.6 245.244585 216.144818 246.054701 215.334701 
C 246.864818 214.524585 247.32 213.425677 247.32 212.28 
C 247.32 211.134323 246.864818 210.035415 246.054701 209.225299 
C 245.244585 208.415182 244.145677 207.96 243 207.96 
C 241.854323 207.96 240.755415 208.415182 239.945299 209.225299 
C 239.135182 210.035415 238.68 211.134323 238.68 212.28 
C 238.68 213.425677 239.135182 214.524585 239.945299 215.334701 
C 240.755415 216.144818 241.854323 216.6 243 216.6 
z
" clip-path="url(#p7dc0749cb4)" style="fill: #ffffff; stroke: #000000; stroke-width: 2; stroke-linejoin: miter"/>
   </g>
   <g id="patch_10">
    <path d="M 270.36 216.6 
C 271.505677 216.6 272.604585 216.144818 273.414701 215.334701 
C 274.224818 214.524585 274.68 213.425677 274.68 212.28 
C 274.68 211.134323 274.224818 210.035415 273.414701 209.225299 
C 272.604585 208.415182 271.505677 207.96 270.36 207.96 
C 269.214323 207.96 268.115415 208.415182 267.305299 209.225299 
C 266.495182 210.035415 266.04 211.134323 266.04 212.28 
C 266.04 213.425677 266.495182 214.524585 267.305299 215.334701 
C 268.115415 216.144818 269.214323 216.6 270.36 216.6 
z
" clip-path="url(#p7dc0749cb4)" style="fill: #ffffff; stroke: #000000; stroke-width: 2; stroke-linejoin: miter"/>
   </g>
   <g id="text_6">
    <!-- Relay 2 -->
    <g transform="translate(236.320547 190.192344) scale(0.11 -0.11)">
     <use xlink:href="#DejaVuSans-52"/>
     <use xlink:href="#DejaVuSans-65" transform="translate(64.982422 0)"/>
     <use xlink:href="#DejaVuSans-6c" transform="translate(126.505859 0)"/>
     <use xlink:href="#DejaVuSans-61" transform="translate(154.289062 0)"/>
     <use xlink:href="#DejaVuSans-79" transform="translate(215.568359 0)"/>
     <use xlink:href="#DejaVuSans-20" transform="translate(274.748047 0)"/>
     <use xlink:href="#DejaVuSans-32" transform="translate(306.535156 0)"/>
    </g>
   </g>
   <g id="text_7">
    <!-- Pump 2 -->
    <g transform="translate(343.877969 177.746406) scale(0.11 -0.11)">
     <use xlink:href="#DejaVuSans-50"/>
     <use xlink:href="#DejaVuSans-75" transform="translate(58.552734 0)"/>
     <use xlink:href="#DejaVuSans-6d" transform="translate(121.931641 0)"/>
     <use xlink:href="#DejaVuSans-70" transform="translate(219.34375 0)"/>
     <use xlink:href="#DejaVuSans-20" transform="translate(282.820312 0)"/>
     <use xlink:href="#DejaVuSans-32" transform="translate(314.607422 0)"/>
    </g>
    <!-- 80mA -->
    <g transform="translate(348.561562 188.392344) scale(0.11 -0.11)">
     <use xlink:href="#DejaVuSans-38"/>
     <use xlink:href="#DejaVuSans-30" transform="translate(63.623047 0)"/>
     <use xlink:href="#DejaVuSans-6d" transform="translate(127.246094 0)"/>
     <use xlink:href="#DejaVuSans-41" transform="translate(224.658203 0)"/>
    </g>
   </g>
   <g id="text_8">
    <!-- 1N4007 -->
    <g transform="translate(235.068437 215.392344) scale(0.11 -0.11)">
     <use xlink:href="#DejaVuSans-31"/>
     <use xlink:href="#DejaVuSans-4e" transform="translate(63.623047 0)"/>
     <use xlink:href="#DejaVuSans-34" transform="translate(138.427734 0)"/>
     <use xlink:href="#DejaVuSans-30" transform="translate(202.050781 0)"/>
     <use xlink:href="#DejaVuSans-30" transform="translate(265.673828 0)"/>
     <use xlink:href="#DejaVuSans-37" transform="translate(329.296875 0)"/>
    </g>
   </g>
   <g id="text_9">
    <!-- SucuStation — Power Distribution -->
    <g transform="translate(19.08 159.592344) scale(0.11 -0.11)">
     <defs>
      <path id="DejaVuSans-63" d="M 3122 3366 
L 3122 2828 
Q 2878 2963 2633 3030 
Q 2388 3097 2138 3097 
Q 1578 3097 1268 2742 
Q 959 2388 959 1747 
Q 959 1106 1268 751 
Q 1578 397 2138 397 
Q 2388 397 2633 464 
Q 2878 531 3122 666 
L 3122 134 
Q 2881 22 2623 -34 
Q 2366 -91 2075 -91 
Q 1284 -91 818 406 
Q 353 903 353 1747 
Q 353 2603 823 3093 
Q 1294 3584 2113 3584 
Q 2378 3584 2631 3529 
Q 2884 3475 3122 3366 
z
" transform="scale(0.015625)"/>
      <path id="DejaVuSans-2014" d="M 313 1978 
L 6088 1978 
L 6088 1528 
L 313 1528 
L 313 1978 
z
" transform="scale(0.015625)"/>
      <path id="DejaVuSans-77" d="M 269 3500 
L 844 3500 
L 1563 769 
L 2278 3500 
L 2956 3500 
L 3675 769 
L 4391 3500 
L 4966 3500 
L 4050 0 
L 3372 0 
L 2619 2869 
L 1863 0 
L 1184 0 
L 269 3500 
z
" transform="scale(0.015625)"/>
      <path id="DejaVuSans-72" d="M 2631 2963 
Q 2534 3019 2420 3045 
Q 2306 3072 2169 3072 
Q 1681 3072 1420 2755 
Q 1159 2438 1159 1844 
L 1159 0 
L 581 0 
L 581 3500 
L 1159 3500 
L 1159 2956 
Q 1341 3275 1631 3429 
Q 1922 3584 2338 3584 
Q 2397 3584 2469 3576 
Q 2541 3569 2628 3553 
L 2631 2963 
z
" transform="scale(0.015625)"/>
      <path id="DejaVuSans-44" d="M 1259 4147 
L 1259 519 
L 2022 519 
Q 2988 519 3436 956 
Q 3884 1394 3884 2338 
Q 3884 3275 3436 3711 
Q 2988 4147 2022 4147 
L 1259 4147 
z
M 628 4666 
L 1925 4666 
Q 3281 4666 3915 4102 
Q 4550 3538 4550 2338 
Q 4550 1131 3912 565 
Q 3275 0 1925 0 
L 628 0 
L 628 4666 
z
" transform="scale(0.015625)"/>
      <path id="DejaVuSans-73" d="M 2834 3397 
L 2834 2853 
Q 2591 2978 2328 3040 
Q 2066 3103 1784 3103 
Q 1356 3103 1142 2972 
Q 928 2841 928 2578 
Q 928 2378 1081 2264 
Q 1234 2150 1697 2047 
L 1894 2003 
Q 2506 1872 2764 1633 
Q 3022 1394 3022 966 
Q 3022 478 2636 193 
Q 2250 -91 1575 -91 
Q 1294 -91 989 -36 
Q 684 19 347 128 
L 347 722 
Q 666 556 975 473 
Q 1284 391 1588 391 
Q 1994 391 2212 530 
Q 2431 669 2431 922 
Q 2431 1156 2273 1281 
Q 2116 1406 1581 1522 
L 1381 1569 
Q 847 1681 609 1914 
Q 372 2147 372 2553 
Q 372 3047 722 3315 
Q 1072 3584 1716 3584 
Q 2034 3584 2315 3537 
Q 2597 3491 2834 3397 
z
" transform="scale(0.015625)"/>
      <path id="DejaVuSans-62" d="M 3116 1747 
Q 3116 2381 2855 2742 
Q 2594 3103 2138 3103 
Q 1681 3103 1420 2742 
Q 1159 2381 1159 1747 
Q 1159 1113 1420 752 
Q 1681 391 2138 391 
Q 2594 391 2855 752 
Q 3116 1113 3116 1747 
z
M 1159 2969 
Q 1341 3281 1617 3432 
Q 1894 3584 2278 3584 
Q 2916 3584 3314 3078 
Q 3713 2572 3713 1747 
Q 3713 922 3314 415 
Q 2916 -91 2278 -91 
Q 1894 -91 1617 61 
Q 1341 213 1159 525 
L 1159 0 
L 581 0 
L 581 4863 
L 1159 4863 
L 1159 2969 
z
" transform="scale(0.015625)"/>
     </defs>
     <use xlink:href="#DejaVuSans-53"/>
     <use xlink:href="#DejaVuSans-75" transform="translate(63.476562 0)"/>
     <use xlink:href="#DejaVuSans-63" transform="translate(126.855469 0)"/>
     <use xlink:href="#DejaVuSans-75" transform="translate(181.835938 0)"/>
     <use xlink:href="#DejaVuSans-53" transform="translate(245.214844 0)"/>
     <use xlink:href="#DejaVuSans-74" transform="translate(308.691406 0)"/>
     <use xlink:href="#DejaVuSans-61" transform="translate(347.900391 0)"/>
     <use xlink:href="#DejaVuSans-74" transform="translate(409.179688 0)"/>
     <use xlink:href="#DejaVuSans-69" transform="translate(448.388672 0)"/>
     <use xlink:href="#DejaVuSans-6f" transform="translate(476.171875 0)"/>
     <use xlink:href="#DejaVuSans-6e" transform="translate(537.353516 0)"/>
     <use xlink:href="#DejaVuSans-20" transform="translate(600.732422 0)"/>
     <use xlink:href="#DejaVuSans-2014" transform="translate(632.519531 0)"/>
     <use xlink:href="#DejaVuSans-20" transform="translate(732.519531 0)"/>
     <use xlink:href="#DejaVuSans-50" transform="translate(764.306641 0)"/>
     <use xlink:href="#DejaVuSans-6f" transform="translate(820.984375 0)"/>
     <use xlink:href="#DejaVuSans-77" transform="translate(882.166016 0)"/>
     <use xlink:href="#DejaVuSans-65" transform="translate(963.953125 0)"/>
     <use xlink:href="#DejaVuSans-72" transform="translate(1025.476562 0)"/>
     <use xlink:href="#DejaVuSans-20" transform="translate(1066.589844 0)"/>
     <use xlink:href="#DejaVuSans-44" transform="translate(1098.376953 0)"/>
     <use xlink:href="#DejaVuSans-69" transform="translate(1175.378906 0)"/>
     <use xlink:href="#DejaVuSans-73" transform="translate(1203.162109 0)"/>
     <use xlink:href="#DejaVuSans-74" transform="translate(1255.261719 0)"/>
     <use xlink:href="#DejaVuSans-72" transform="translate(1294.470703 0)"/>
     <use xlink:href="#DejaVuSans-69" transform="translate(1335.583984 0)"/>
     <use xlink:href="#DejaVuSans-62" transform="translate(1363.367188 0)"/>
     <use xlink:href="#DejaVuSans-75" transform="translate(1426.84375 0)"/>
     <use xlink:href="#DejaVuSans-74" transform="translate(1490.222656 0)"/>
     <use xlink:href="#DejaVuSans-69" transform="translate(1529.431641 0)"/>
     <use xlink:href="#DejaVuSans-6f" transform="translate(1557.214844 0)"/>
     <use xlink:href="#DejaVuSans-6e" transform="translate(1618.396484 0)"/>
    </g>
    <!-- 12V 2A, worst case ~341mA -->
    <g transform="translate(19.08 170.238281) scale(0.11 -0.11)">
     <defs>
      <path id="DejaVuSans-2c" d="M 750 794 
L 1409 794 
L 1409 256 
L 897 -744 
L 494 -744 
L 750 256 
L 750 794 
z
" transform="scale(0.015625)"/>
      <path id="DejaVuSans-33" d="M 2597 2516 
Q 3050 2419 3304 2112 
Q 3559 1806 3559 1356 
Q 3559 666 3084 287 
Q 2609 -91 1734 -91 
Q 1441 -91 1130 -33 
Q 819 25 488 141 
L 488 750 
Q 750 597 1062 519 
Q 1375 441 1716 441 
Q 2309 441 2620 675 
Q 2931 909 2931 1356 
Q 2931 1769 2642 2001 
Q 2353 2234 1838 2234 
L 1294 2234 
L 1294 2753 
L 1863 2753 
Q 2328 2753 2575 2939 
Q 2822 3125 2822 3475 
Q 2822 3834 2567 4026 
Q 2313 4219 1838 4219 
Q 1578 4219 1281 4162 
Q 984 4106 628 3988 
L 628 4550 
Q 988 4650 1302 4700 
Q 1616 4750 1894 4750 
Q 2613 4750 3031 4423 
Q 3450 4097 3450 3541 
Q 3450 3153 3228 2886 
Q 3006 2619 2597 2516 
z
" transform="scale(0.015625)"/>
     </defs>
     <use xlink:href="#DejaVuSans-31"/>
     <use xlink:href="#DejaVuSans-32" transform="translate(63.623047 0)"/>
     <use xlink:href="#DejaVuSans-56" transform="translate(127.246094 0)"/>
     <use xlink:href="#DejaVuSans-20" transform="translate(195.654297 0)"/>
     <use xlink:href="#DejaVuSans-32" transform="translate(227.441406 0)"/>
     <use xlink:href="#DejaVuSans-41" transform="translate(291.064453 0)"/>
     <use xlink:href="#DejaVuSans-2c" transform="translate(359.472656 0)"/>
     <use xlink:href="#DejaVuSans-20" transform="translate(391.259766 0)"/>
     <use xlink:href="#DejaVuSans-77" transform="translate(423.046875 0)"/>
     <use xlink:href="#DejaVuSans-6f" transform="translate(504.833984 0)"/>
     <use xlink:href="#DejaVuSans-72" transform="translate(566.015625 0)"/>
     <use xlink:href="#DejaVuSans-73" transform="translate(607.128906 0)"/>
     <use xlink:href="#DejaVuSans-74" transform="translate(659.228516 0)"/>
     <use xlink:href="#DejaVuSans-20" transform="translate(698.4375 0)"/>
     <use xlink:href="#DejaVuSans-63" transform="translate(730.224609 0)"/>
     <use xlink:href="#DejaVuSans-61" transform="translate(785.205078 0)"/>
     <use xlink:href="#DejaVuSans-73" transform="translate(846.484375 0)"/>
     <use xlink:href="#DejaVuSans-65" transform="translate(898.583984 0)"/>
     <use xlink:href="#DejaVuSans-20" transform="translate(960.107422 0)"/>
     <use xlink:href="#DejaVuSans-7e" transform="translate(991.894531 0)"/>
     <use xlink:href="#DejaVuSans-33" transform="translate(1075.683594 0)"/>
     <use xlink:href="#DejaVuSans-34" transform="translate(1139.306641 0)"/>
     <use xlink:href="#DejaVuSans-31" transform="translate(1202.929688 0)"/>
     <use xlink:href="#DejaVuSans-6d" transform="translate(1266.552734 0)"/>
     <use xlink:href="#DejaVuSans-41" transform="translate(1363.964844 0)"/>
    </g>
   </g>
   <g id="text_10">
    <!-- SucuStation — Power Distribution -->
    <g transform="translate(19.08 159.592344) scale(0.11 -0.11)">
     <use xlink:href="#DejaVuSans-53"/>
     <use xlink:href="#DejaVuSans-75" transform="translate(63.476562 0)"/>
     <use xlink:href="#DejaVuSans-63" transform="translate(126.855469 0)"/>
     <use xlink:href="#DejaVuSans-75" transform="translate(181.835938 0)"/>
     <use xlink:href="#DejaVuSans-53" transform="translate(245.214844 0)"/>
     <use xlink:href="#DejaVuSans-74" transform="translate(308.691406 0)"/>
     <use xlink:href="#DejaVuSans-61" transform="translate(347.900391 0)"/>
     <use xlink:href="#DejaVuSans-74" transform="translate(409.179688 0)"/>
     <use xlink:href="#DejaVuSans-69" transform="translate(448.388672 0)"/>
     <use xlink:href="#DejaVuSans-6f" transform="translate(476.171875 0)"/>
     <use xlink:href="#DejaVuSans-6e" transform="translate(537.353516 0)"/>
     <use xlink:href="#DejaVuSans-20" transform="translate(600.732422 0)"/>
     <use xlink:href="#DejaVuSans-2014" transform="translate(632.519531 0)"/>
     <use xlink:href="#DejaVuSans-20" transform="translate(732.519531 0)"/>
     <use xlink:href="#DejaVuSans-50" transform="translate(764.306641 0)"/>
     <use xlink:href="#DejaVuSans-6f" transform="translate(820.984375 0)"/>
     <use xlink:href="#DejaVuSans-77" transform="translate(882.166016 0)"/>
     <use xlink:href="#DejaVuSans-65" transform="translate(963.953125 0)"/>
     <use xlink:href="#DejaVuSans-72" transform="translate(1025.476562 0)"/>
     <use xlink:href="#DejaVuSans-20" transform="translate(1066.589844 0)"/>
     <use xlink:href="#DejaVuSans-44" transform="translate(1098.376953 0)"/>
     <use xlink:href="#DejaVuSans-69" transform="translate(1175.378906 0)"/>
     <use xlink:href="#DejaVuSans-73" transform="translate(1203.162109 0)"/>
     <use xlink:href="#DejaVuSans-74" transform="translate(1255.261719 0)"/>
     <use xlink:href="#DejaVuSans-72" transform="translate(1294.470703 0)"/>
     <use xlink:href="#DejaVuSans-69" transform="translate(1335.583984 0)"/>
     <use xlink:href="#DejaVuSans-62" transform="translate(1363.367188 0)"/>
     <use xlink:href="#DejaVuSans-75" transform="translate(1426.84375 0)"/>
     <use xlink:href="#DejaVuSans-74" transform="translate(1490.222656 0)"/>
     <use xlink:href="#DejaVuSans-69" transform="translate(1529.431641 0)"/>
     <use xlink:href="#DejaVuSans-6f" transform="translate(1557.214844 0)"/>
     <use xlink:href="#DejaVuSans-6e" transform="translate(1618.396484 0)"/>
    </g>
    <!-- 12V 2A, worst case ~341mA -->
    <g transform="translate(19.08 170.238281) scale(0.11 -0.11)">
     <use xlink:href="#DejaVuSans-31"/>
     <use xlink:href="#DejaVuSans-32" transform="translate(63.623047 0)"/>
     <use xlink:href="#DejaVuSans-56" transform="translate(127.246094 0)"/>
     <use xlink:href="#DejaVuSans-20" transform="translate(195.654297 0)"/>
     <use xlink:href="#DejaVuSans-32" transform="translate(227.441406 0)"/>
     <use xlink:href="#DejaVuSans-41" transform="translate(291.064453 0)"/>
     <use xlink:href="#DejaVuSans-2c" transform="translate(359.472656 0)"/>
     <use xlink:href="#DejaVuSans-20" transform="translate(391.259766 0)"/>
     <use xlink:href="#DejaVuSans-77" transform="translate(423.046875 0)"/>
     <use xlink:href="#DejaVuSans-6f" transform="translate(504.833984 0)"/>
     <use xlink:href="#DejaVuSans-72" transform="translate(566.015625 0)"/>
     <use xlink:href="#DejaVuSans-73" transform="translate(607.128906 0)"/>
     <use xlink:href="#DejaVuSans-74" transform="translate(659.228516 0)"/>
     <use xlink:href="#DejaVuSans-20" transform="translate(698.4375 0)"/>
     <use xlink:href="#DejaVuSans-63" transform="translate(730.224609 0)"/>
     <use xlink:href="#DejaVuSans-61" transform="translate(785.205078 0)"/>
     <use xlink:href="#DejaVuSans-73" transform="translate(846.484375 0)"/>
     <use xlink:href="#DejaVuSans-65" transform="translate(898.583984 0)"/>
     <use xlink:href="#DejaVuSans-20" transform="translate(960.107422 0)"/>
     <use xlink:href="#DejaVuSans-7e" transform="translate(991.894531 0)"/>
     <use xlink:href="#DejaVuSans-33" transform="translate(1075.683594 0)"/>
     <use xlink:href="#DejaVuSans-34" transform="translate(1139.306641 0)"/>
     <use xlink:href="#DejaVuSans-31" transform="translate(1202.929688 0)"/>
     <use xlink:href="#DejaVuSans-6d" transform="translate(1266.552734 0)"/>
     <use xlink:href="#DejaVuSans-41" transform="translate(1363.964844 0)"/>
    </g>
   </g>
   <g id="patch_11">
    <path d="M 94.68 52.98 
C 95.396048 52.98 96.082866 52.695511 96.589188 52.189188 
C 97.095511 51.682866 97.38 50.996048 97.38 50.28 
C 97.38 49.563952 97.095511 48.877134 96.589188 48.370812 
C 96.082866 47.864489 95.396048 47.58 94.68 47.58 
C 93.963952 47.58 93.277134 47.864489 92.770812 48.370812 
C 92.264489 48.877134 91.98 49.563952 91.98 50.28 
C 91.98 50.996048 92.264489 51.682866 92.770812 52.189188 
C 93.277134 52.695511 93.963952 52.98 94.68 52.98 
z
" clip-path="url(#p7dc0749cb4)" style="stroke: #000000; stroke-width: 2; stroke-linejoin: miter"/>
   </g>
   <g id="patch_12">
    <path d="M 166.68 160.98 
C 167.396048 160.98 168.082866 160.695511 168.589188 160.189188 
C 169.095511 159.682866 169.38 158.996048 169.38 158.28 
C 169.38 157.563952 169.095511 156.877134 168.589188 156.370812 
C 168.082866 155.864489 167.396048 155.58 166.68 155.58 
C 165.963952 155.58 165.277134 155.864489 164.770812 156.370812 
C 164.264489 156.877134 163.98 157.563952 163.98 158.28 
C 163.98 158.996048 164.264489 159.682866 164.770812 160.189188 
C 165.277134 160.695511 165.963952 160.98 166.68 160.98 
z
" clip-path="url(#p7dc0749cb4)" style="stroke: #000000; stroke-width: 2; stroke-linejoin: miter"/>
   </g>
  </g>
 </g>
 <defs>
  <clipPath id="p7dc0749cb4">
   <rect x="0" y="-0" width="423.36" height="243.96"/>
  </clipPath>
 </defs>
</svg>
