<?xml version="1.0" encoding="utf-8" standalone="no"?>
<!DOCTYPE svg PUBLIC "-//W3C//DTD SVG 1.1//EN"
  "http://www.w3.org/Graphics/SVG/1.1/DTD/svg11.dtd">
<svg xmlns:xlink="http://www.w3.org/1999/xlink" width="628.236696pt" height="423.96pt" viewBox="0 0 628.236696 423.96" xmlns="http://www.w3.org/2000/svg" version="1.1">
 <metadata>
  <rdf:RDF xmlns:dc="http://purl.org/dc/elements/1.1/" xmlns:cc="http://creativecommons.org/ns#" xmlns:rdf="http://www.w3.org/1999/02/22-rdf-syntax-ns#">
   <cc:Work>
    <dc:type rdf:resource="http://purl.org/dc/dcmitype/StillImage"/>
    <dc:date>2026-03-25T22:33:18.978896</dc:date>
    <dc:format>image/svg+xml</dc:format>
    <dc:creator>
     <cc:Agent>
      <dc:title>Matplotlib v3.10.8, https://matplotlib.org/</dc:title>
     </cc:Agent>
    </dc:creator>
   </cc:Work>
  </rdf:RDF>
 </metadata>
 <defs>
  <style type="text/css">*{stroke-linejoin: round; stroke-linecap: butt}</style>
 </defs>
 <g id="figure_1">
  <g id="patch_1">
   <path d="M 0 423.96 
L 628.236696 423.96 
L 628.236696 0 
L 0 0 
L 0 423.96 
z
" style="fill: none"/>
  </g>
  <g id="axes_1">
   <g id="patch_2">
    <path d="M 99.171719 232.08 
L 99.171719 174.48 
L 167.391696 174.48 
L 167.391696 232.08 
L 99.171719 232.08 
z
" clip-path="url(#p1543be0182)" style="fill: none"/>
   </g>
   <g id="line2d_1">
    <path d="M 99.171719 232.08 
L 99.171719 174.48 
L 167.391696 174.48 
L 167.391696 232.08 
L 99.171719 232.08 
" clip-path="url(#p1543be0182)" style="fill: none; stroke: #000000; stroke-width: 2; stroke-linecap: round"/>
   </g>
   <g id="patch_3">
    <path d="M 108.171719 185.28 
L 108.460035 185.289246 
L 108.747166 185.316945 
L 109.031933 185.362984 
L 109.313164 185.427173 
L 109.589706 185.509249 
L 109.86042 185.608875 
L 110.124196 185.72564 
L 110.379948 185.859066 
L 110.626626 186.008604 
L 110.863216 186.173639 
L 111.088747 186.353493 
L 111.30229 186.547428 
L 111.50297 186.754646 
L 111.68996 186.974296 
L 111.862494 187.205475 
L 112.019861 187.447233 
L 112.161416 187.698578 
L 112.286576 187.958475 
L 112.394827 188.225857 
L 112.485724 188.499626 
L 112.558894 188.778656 
L 112.614037 189.0618 
L 112.650925 189.347896 
L 112.669407 189.635768 
L 112.669407 189.924232 
L 112.650925 190.212104 
L 112.614037 190.4982 
L 112.558894 190.781344 
L 112.485724 191.060374 
L 112.394827 191.334143 
L 112.286576 191.601525 
L 112.161416 191.861422 
L 112.019861 192.112767 
L 111.862494 192.354525 
L 111.68996 192.585704 
L 111.50297 192.805354 
L 111.30229 193.012572 
L 111.088747 193.206507 
L 110.863216 193.386361 
L 110.626626 193.551396 
L 110.379948 193.700934 
L 110.124196 193.83436 
L 109.86042 193.951125 
L 109.589706 194.050751 
L 109.313164 194.132827 
L 109.031933 194.197016 
L 108.747166 194.243055 
L 108.460035 194.270754 
L 108.171719 194.28 
" clip-path="url(#p1543be0182)" style="fill: none; stroke: #000000; stroke-width: 2; stroke-linejoin: miter"/>
   </g>
   <g id="patch_4">
    <path d="M 108.171719 194.28 
L 108.460035 194.289246 
L 108.747166 194.316945 
L 109.031933 194.362984 
L 109.313164 194.427173 
L 109.589706 194.509249 
L 109.86042 194.608875 
L 110.124196 194.72564 
L 110.379948 194.859066 
L 110.626626 195.008604 
L 110.863216 195.173639 
L 111.088747 195.353493 
L 111.30229 195.547428 
L 111.50297 195.754646 
L 111.68996 195.974296 
L 111.862494 196.205475 
L 112.019861 196.447233 
L 112.161416 196.698578 
L 112.286576 196.958475 
L 112.394827 197.225857 
L 112.485724 197.499626 
L 112.558894 197.778656 
L 112.614037 198.0618 
L 112.650925 198.347896 
L 112.669407 198.635768 
L 112.669407 198.924232 
L 112.650925 199.212104 
L 112.614037 199.4982 
L 112.558894 199.781344 
L 112.485724 200.060374 
L 112.394827 200.334143 
L 112.286576 200.601525 
L 112.161416 200.861422 
L 112.019861 201.112767 
L 111.862494 201.354525 
L 111.68996 201.585704 
L 111.50297 201.805354 
L 111.30229 202.012572 
L 111.088747 202.206507 
L 110.863216 202.386361 
L 110.626626 202.551396 
L 110.379948 202.700934 
L 110.124196 202.83436 
L 109.86042 202.951125 
L 109.589706 203.050751 
L 109.313164 203.132827 
L 109.031933 203.197016 
L 108.747166 203.243055 
L 108.460035 203.270754 
L 108.171719 203.28 
" clip-path="url(#p1543be0182)" style="fill: none; stroke: #000000; stroke-width: 2; stroke-linejoin: miter"/>
   </g>
   <g id="patch_5">
    <path d="M 108.171719 203.28 
L 108.460035 203.289246 
L 108.747166 203.316945 
L 109.031933 203.362984 
L 109.313164 203.427173 
L 109.589706 203.509249 
L 109.86042 203.608875 
L 110.124196 203.72564 
L 110.379948 203.859066 
L 110.626626 204.008604 
L 110.863216 204.173639 
L 111.088747 204.353493 
L 111.30229 204.547428 
L 111.50297 204.754646 
L 111.68996 204.974296 
L 111.862494 205.205475 
L 112.019861 205.447233 
L 112.161416 205.698578 
L 112.286576 205.958475 
L 112.394827 206.225857 
L 112.485724 206.499626 
L 112.558894 206.778656 
L 112.614037 207.0618 
L 112.650925 207.347896 
L 112.669407 207.635768 
L 112.669407 207.924232 
L 112.650925 208.212104 
L 112.614037 208.4982 
L 112.558894 208.781344 
L 112.485724 209.060374 
L 112.394827 209.334143 
L 112.286576 209.601525 
L 112.161416 209.861422 
L 112.019861 210.112767 
L 111.862494 210.354525 
L 111.68996 210.585704 
L 111.50297 210.805354 
L 111.30229 211.012572 
L 111.088747 211.206507 
L 110.863216 211.386361 
L 110.626626 211.551396 
L 110.379948 211.700934 
L 110.124196 211.83436 
L 109.86042 211.951125 
L 109.589706 212.050751 
L 109.313164 212.132827 
L 109.031933 212.197016 
L 108.747166 212.243055 
L 108.460035 212.270754 
L 108.171719 212.28 
" clip-path="url(#p1543be0182)" style="fill: none; stroke: #000000; stroke-width: 2; stroke-linejoin: miter"/>
   </g>
   <g id="patch_6">
    <path d="M 108.171719 212.28 
L 108.460035 212.289246 
L 108.747166 212.316945 
L 109.031933 212.362984 
L 109.313164 212.427173 
L 109.589706 212.509249 
L 109.86042 212.608875 
L 110.124196 212.72564 
L 110.379948 212.859066 
L 110.626626 213.008604 
L 110.863216 213.173639 
L 111.088747 213.353493 
L 111.30229 213.547428 
L 111.50297 213.754646 
L 111.68996 213.974296 
L 111.862494 214.205475 
L 112.019861 214.447233 
L 112.161416 214.698578 
L 112.286576 214.958475 
L 112.394827 215.225857 
L 112.485724 215.499626 
L 112.558894 215.778656 
L 112.614037 216.0618 
L 112.650925 216.347896 
L 112.669407 216.635768 
L 112.669407 216.924232 
L 112.650925 217.212104 
L 112.614037 217.4982 
L 112.558894 217.781344 
L 112.485724 218.060374 
L 112.394827 218.334143 
L 112.286576 218.601525 
L 112.161416 218.861422 
L 112.019861 219.112767 
L 111.862494 219.354525 
L 111.68996 219.585704 
L 111.50297 219.805354 
L 111.30229 220.012572 
L 111.088747 220.206507 
L 110.863216 220.386361 
L 110.626626 220.551396 
L 110.379948 220.700934 
L 110.124196 220.83436 
L 109.86042 220.951125 
L 109.589706 221.050751 
L 109.313164 221.132827 
L 109.031933 221.197016 
L 108.747166 221.243055 
L 108.460035 221.270754 
L 108.171719 221.28 
" clip-path="url(#p1543be0182)" style="fill: none; stroke: #000000; stroke-width: 2; stroke-linejoin: miter"/>
   </g>
   <g id="patch_7">
    <path d="M 142.191696 131.28 
C 146.965352 131.28 151.544134 129.383406 154.919619 126.007922 
C 158.295103 122.632438 160.191696 118.053656 160.191696 113.28 
C 160.191696 108.506344 158.295103 103.927562 154.919619 100.552078 
C 151.544134 97.176594 146.965352 95.28 142.191696 95.28 
C 137.418041 95.28 132.839259 97.176594 129.463774 100.552078 
C 126.08829 103.927562 124.191696 108.506344 124.191696 113.28 
C 124.191696 118.053656 126.08829 122.632438 129.463774 126.007922 
C 132.839259 129.383406 137.418041 131.28 142.191696 131.28 
L 142.191696 131.28 
z
" clip-path="url(#p1543be0182)" style="fill: none; stroke: #000000; stroke-width: 2; stroke-linejoin: miter"/>
   </g>
   <g id="patch_8">
    <path d="M 268.191696 77.28 
C 272.965352 77.28 277.544134 75.383406 280.919619 72.007922 
C 284.295103 68.632438 286.191696 64.053656 286.191696 59.28 
C 286.191696 54.506344 284.295103 49.927562 280.919619 46.552078 
C 277.544134 43.176594 272.965352 41.28 268.191696 41.28 
C 263.418041 41.28 258.839259 43.176594 255.463774 46.552078 
C 252.08829 49.927562 250.191696 54.506344 250.191696 59.28 
C 250.191696 64.053656 252.08829 68.632438 255.463774 72.007922 
C 258.839259 75.383406 263.418041 77.28 268.191696 77.28 
L 268.191696 77.28 
z
" clip-path="url(#p1543be0182)" style="fill: none; stroke: #000000; stroke-width: 2; stroke-linejoin: miter"/>
   </g>
   <g id="patch_9">
    <path d="M 261.891696 50.28 
L 274.491696 59.28 
L 261.891696 68.28 
L 261.891696 50.28 
z
" clip-path="url(#p1543be0182)" style="fill: none; stroke: #000000; stroke-width: 2; stroke-linecap: round"/>
   </g>
   <g id="line2d_2">
    <path d="M 90.171719 167.28 
L 99.171719 167.28 
L 108.171719 167.28 
" clip-path="url(#p1543be0182)" style="fill: none; stroke: #000000; stroke-width: 2; stroke-linecap: round"/>
   </g>
   <g id="line2d_3">
    <path d="M 108.171719 167.28 
L 108.171719 185.28 
M 108.171719 221.28 
L 108.171719 239.28 
" clip-path="url(#p1543be0182)" style="fill: none; stroke: #000000; stroke-width: 2; stroke-linecap: round"/>
   </g>
   <g id="line2d_4">
    <path d="M 118.071696 185.28 
L 118.071696 203.28 
L 118.071696 221.28 
" clip-path="url(#p1543be0182)" style="fill: none; stroke: #000000; stroke-width: 2; stroke-linecap: round"/>
   </g>
   <g id="line2d_5">
    <path d="M 142.191696 167.28 
L 142.191696 185.28 
M 145.791696 193.92 
L 158.391696 214.08 
M 142.191696 221.28 
L 142.191696 239.28 
" clip-path="url(#p1543be0182)" style="fill: none; stroke: #000000; stroke-width: 2; stroke-linecap: round"/>
   </g>
   <g id="line2d_6">
    <path d="M 119.871696 203.28 
L 127.881685 203.28 
L 135.891674 203.28 
" clip-path="url(#p1543be0182)" style="fill: none; stroke-dasharray: 2,3.3; stroke-dashoffset: 0; stroke: #000000; stroke-width: 2"/>
   </g>
   <g id="line2d_7">
    <path d="M 142.191696 167.28 
L 142.191696 131.28 
L 142.191696 131.28 
M 142.191696 95.28 
L 142.191696 95.28 
L 142.191696 59.28 
" clip-path="url(#p1543be0182)" style="fill: none; stroke: #000000; stroke-width: 2; stroke-linecap: round"/>
   </g>
   <g id="line2d_8">
    <path d="M 138.591696 104.28 
L 145.791696 104.28 
" clip-path="url(#p1543be0182)" style="fill: none; stroke: #000000; stroke-width: 2; stroke-linecap: round"/>
   </g>
   <g id="line2d_9">
    <path d="M 142.191696 125.88 
L 142.191696 118.68 
" clip-path="url(#p1543be0182)" style="fill: none; stroke: #000000; stroke-width: 2; stroke-linecap: round"/>
   </g>
   <g id="line2d_10">
    <path d="M 138.591696 122.28 
L 145.791696 122.28 
" clip-path="url(#p1543be0182)" style="fill: none; stroke: #000000; stroke-width: 2; stroke-linecap: round"/>
   </g>
   <g id="line2d_11">
    <path d="M 142.191696 59.28 
L 178.191696 59.28 
L 214.191696 59.28 
" clip-path="url(#p1543be0182)" style="fill: none; stroke: #000000; stroke-width: 2; stroke-linecap: round"/>
   </g>
   <g id="line2d_12">
    <path d="M 214.191696 59.28 
L 242.271696 59.28 
L 242.271696 59.28 
M 294.111696 59.28 
L 294.111696 59.28 
L 322.191696 59.28 
" clip-path="url(#p1543be0182)" style="fill: none; stroke: #000000; stroke-width: 2; stroke-linecap: round"/>
   </g>
   <g id="line2d_13">
    <path d="M 250.191696 67.2 
L 242.271696 67.2 
L 242.271696 51.36 
L 250.191696 51.36 
" clip-path="url(#p1543be0182)" style="fill: none; stroke: #000000; stroke-width: 2; stroke-linecap: round"/>
   </g>
   <g id="line2d_14">
    <path d="M 286.191696 67.2 
L 294.111696 67.2 
L 294.111696 51.36 
L 286.191696 51.36 
" clip-path="url(#p1543be0182)" style="fill: none; stroke: #000000; stroke-width: 2; stroke-linecap: round"/>
   </g>
   <g id="line2d_15">
    <path d="M 322.191696 59.28 
L 274.491696 59.28 
M 274.491696 50.28 
L 274.491696 68.28 
M 261.891696 59.28 
L 214.191696 59.28 
" clip-path="url(#p1543be0182)" style="fill: none; stroke: #000000; stroke-width: 2; stroke-linecap: round"/>
   </g>
   <g id="line2d_16">
    <path d="M 142.191696 239.28 
L 142.191696 329.28 
L 142.191696 419.28 
" clip-path="url(#p1543be0182)" style="fill: none; stroke: #000000; stroke-width: 2; stroke-linecap: round"/>
   </g>
   <g id="line2d_17">
    <path d="M 142.191696 419.28 
L 178.191696 419.28 
L 214.191696 419.28 
" clip-path="url(#p1543be0182)" style="fill: none; stroke: #000000; stroke-width: 2; stroke-linecap: round"/>
   </g>
   <g id="line2d_18">
    <path d="M 322.191696 59.28 
L 322.191696 68.28 
L 322.191696 77.28 
" clip-path="url(#p1543be0182)" style="fill: none; stroke: #000000; stroke-width: 2; stroke-linecap: round"/>
   </g>
   <g id="line2d_19">
    <path d="M 322.191696 77.28 
L 322.191696 91.68 
L 313.191696 91.68 
L 331.191696 91.68 
M 315.891696 96 
L 328.491696 96 
M 320.391696 100.32 
L 323.991696 100.32 
" clip-path="url(#p1543be0182)" style="fill: none; stroke: #000000; stroke-width: 2; stroke-linecap: round"/>
   </g>
   <g id="text_1">
    <!-- ESP32 -->
    <g transform="translate(52.007656 159.669375) scale(0.11 -0.11)">
     <defs>
      <path id="DejaVuSans-45" d="M 628 4666 
L 3578 4666 
L 3578 4134 
L 1259 4134 
L 1259 2753 
L 3481 2753 
L 3481 2222 
L 1259 2222 
L 1259 531 
L 3634 531 
L 3634 0 
L 628 0 
L 628 4666 
z
" transform="scale(0.015625)"/>
      <path id="DejaVuSans-53" d="M 3425 4513 
L 3425 3897 
Q 3066 4069 2747 4153 
Q 2428 4238 2131 4238 
Q 1616 4238 1336 4038 
Q 1056 3838 1056 3469 
Q 1056 3159 1242 3001 
Q 1428 2844 1947 2747 
L 2328 2669 
Q 3034 2534 3370 2195 
Q 3706 1856 3706 1288 
Q 3706 609 3251 259 
Q 2797 -91 1919 -91 
Q 1588 -91 1214 -16 
Q 841 59 441 206 
L 441 856 
Q 825 641 1194 531 
Q 1563 422 1919 422 
Q 2459 422 2753 634 
Q 3047 847 3047 1241 
Q 3047 1584 2836 1778 
Q 2625 1972 2144 2069 
L 1759 2144 
Q 1053 2284 737 2584 
Q 422 2884 422 3419 
Q 422 4038 858 4394 
Q 1294 4750 2059 4750 
Q 2388 4750 2728 4690 
Q 3069 4631 3425 4513 
z
" transform="scale(0.015625)"/>
      <path id="DejaVuSans-50" d="M 1259 4147 
L 1259 2394 
L 2053 2394 
Q 2494 2394 2734 2622 
Q 2975 2850 2975 3272 
Q 2975 3691 2734 3919 
Q 2494 4147 2053 4147 
L 1259 4147 
z
M 628 4666 
L 2053 4666 
Q 2838 4666 3239 4311 
Q 3641 3956 3641 3272 
Q 3641 2581 3239 2228 
Q 2838 1875 2053 1875 
L 1259 1875 
L 1259 0 
L 628 0 
L 628 4666 
z
" transform="scale(0.015625)"/>
      <path id="DejaVuSans-33" d="M 2597 2516 
Q 3050 2419 3304 2112 
Q 3559 1806 3559 1356 
Q 3559 666 3084 287 
Q 2609 -91 1734 -91 
Q 1441 -91 1130 -33 
Q 819 25 488 141 
L 488 750 
Q 750 597 1062 519 
Q 1375 441 1716 441 
Q 2309 441 2620 675 
Q 2931 909 2931 1356 
Q 2931 1769 2642 2001 
Q 2353 2234 1838 2234 
L 1294 2234 
L 1294 2753 
L 1863 2753 
Q 2328 2753 2575 2939 
Q 2822 3125 2822 3475 
Q 2822 3834 2567 4026 
Q 2313 4219 1838 4219 
Q 1578 4219 1281 4162 
Q 984 4106 628 3988 
L 628 4550 
Q 988 4650 1302 4700 
Q 1616 4750 1894 4750 
Q 2613 4750 3031 4423 
Q 3450 4097 3450 3541 
Q 3450 3153 3228 2886 
Q 3006 2619 2597 2516 
z
" transform="scale(0.015625)"/>
      <path id="DejaVuSans-32" d="M 1228 531 
L 3431 531 
L 3431 0 
L 469 0 
L 469 531 
Q 828 903 1448 1529 
Q 2069 2156 2228 2338 
Q 2531 2678 2651 2914 
Q 2772 3150 2772 3378 
Q 2772 3750 2511 3984 
Q 2250 4219 1831 4219 
Q 1534 4219 1204 4116 
Q 875 4013 500 3803 
L 500 4441 
Q 881 4594 1212 4672 
Q 1544 4750 1819 4750 
Q 2544 4750 2975 4387 
Q 3406 4025 3406 3419 
Q 3406 3131 3298 2873 
Q 3191 2616 2906 2266 
Q 2828 2175 2409 1742 
Q 1991 1309 1228 531 
z
" transform="scale(0.015625)"/>
     </defs>
     <use xlink:href="#DejaVuSans-45"/>
     <use xlink:href="#DejaVuSans-53" transform="translate(63.183594 0)"/>
     <use xlink:href="#DejaVuSans-50" transform="translate(126.660156 0)"/>
     <use xlink:href="#DejaVuSans-33" transform="translate(186.962891 0)"/>
     <use xlink:href="#DejaVuSans-32" transform="translate(250.585938 0)"/>
    </g>
    <!-- G14 (Relay1) -->
    <g transform="translate(14.748594 170.315313) scale(0.11 -0.11)">
     <defs>
      <path id="DejaVuSans-47" d="M 3809 666 
L 3809 1919 
L 2778 1919 
L 2778 2438 
L 4434 2438 
L 4434 434 
Q 4069 175 3628 42 
Q 3188 -91 2688 -91 
Q 1594 -91 976 548 
Q 359 1188 359 2328 
Q 359 3472 976 4111 
Q 1594 4750 2688 4750 
Q 3144 4750 3555 4637 
Q 3966 4525 4313 4306 
L 4313 3634 
Q 3963 3931 3569 4081 
Q 3175 4231 2741 4231 
Q 1884 4231 1454 3753 
Q 1025 3275 1025 2328 
Q 1025 1384 1454 906 
Q 1884 428 2741 428 
Q 3075 428 3337 486 
Q 3600 544 3809 666 
z
" transform="scale(0.015625)"/>
      <path id="DejaVuSans-31" d="M 794 531 
L 1825 531 
L 1825 4091 
L 703 3866 
L 703 4441 
L 1819 4666 
L 2450 4666 
L 2450 531 
L 3481 531 
L 3481 0 
L 794 0 
L 794 531 
z
" transform="scale(0.015625)"/>
      <path id="DejaVuSans-34" d="M 2419 4116 
L 825 1625 
L 2419 1625 
L 2419 4116 
z
M 2253 4666 
L 3047 4666 
L 3047 1625 
L 3713 1625 
L 3713 1100 
L 3047 1100 
L 3047 0 
L 2419 0 
L 2419 1100 
L 313 1100 
L 313 1709 
L 2253 4666 
z
" transform="scale(0.015625)"/>
      <path id="DejaVuSans-20" transform="scale(0.015625)"/>
      <path id="DejaVuSans-28" d="M 1984 4856 
Q 1566 4138 1362 3434 
Q 1159 2731 1159 2009 
Q 1159 1288 1364 580 
Q 1569 -128 1984 -844 
L 1484 -844 
Q 1016 -109 783 600 
Q 550 1309 550 2009 
Q 550 2706 781 3412 
Q 1013 4119 1484 4856 
L 1984 4856 
z
" transform="scale(0.015625)"/>
      <path id="DejaVuSans-52" d="M 2841 2188 
Q 3044 2119 3236 1894 
Q 3428 1669 3622 1275 
L 4263 0 
L 3584 0 
L 2988 1197 
Q 2756 1666 2539 1819 
Q 2322 1972 1947 1972 
L 1259 1972 
L 1259 0 
L 628 0 
L 628 4666 
L 2053 4666 
Q 2853 4666 3247 4331 
Q 3641 3997 3641 3322 
Q 3641 2881 3436 2590 
Q 3231 2300 2841 2188 
z
M 1259 4147 
L 1259 2491 
L 2053 2491 
Q 2509 2491 2742 2702 
Q 2975 2913 2975 3322 
Q 2975 3731 2742 3939 
Q 2509 4147 2053 4147 
L 1259 4147 
z
" transform="scale(0.015625)"/>
      <path id="DejaVuSans-65" d="M 3597 1894 
L 3597 1613 
L 953 1613 
Q 991 1019 1311 708 
Q 1631 397 2203 397 
Q 2534 397 2845 478 
Q 3156 559 3463 722 
L 3463 178 
Q 3153 47 2828 -22 
Q 2503 -91 2169 -91 
Q 1331 -91 842 396 
Q 353 884 353 1716 
Q 353 2575 817 3079 
Q 1281 3584 2069 3584 
Q 2775 3584 3186 3129 
Q 3597 2675 3597 1894 
z
M 3022 2063 
Q 3016 2534 2758 2815 
Q 2500 3097 2075 3097 
Q 1594 3097 1305 2825 
Q 1016 2553 972 2059 
L 3022 2063 
z
" transform="scale(0.015625)"/>
      <path id="DejaVuSans-6c" d="M 603 4863 
L 1178 4863 
L 1178 0 
L 603 0 
L 603 4863 
z
" transform="scale(0.015625)"/>
      <path id="DejaVuSans-61" d="M 2194 1759 
Q 1497 1759 1228 1600 
Q 959 1441 959 1056 
Q 959 750 1161 570 
Q 1363 391 1709 391 
Q 2188 391 2477 730 
Q 2766 1069 2766 1631 
L 2766 1759 
L 2194 1759 
z
M 3341 1997 
L 3341 0 
L 2766 0 
L 2766 531 
Q 2569 213 2275 61 
Q 1981 -91 1556 -91 
Q 1019 -91 701 211 
Q 384 513 384 1019 
Q 384 1609 779 1909 
Q 1175 2209 1959 2209 
L 2766 2209 
L 2766 2266 
Q 2766 2663 2505 2880 
Q 2244 3097 1772 3097 
Q 1472 3097 1187 3025 
Q 903 2953 641 2809 
L 641 3341 
Q 956 3463 1253 3523 
Q 1550 3584 1831 3584 
Q 2591 3584 2966 3190 
Q 3341 2797 3341 1997 
z
" transform="scale(0.015625)"/>
      <path id="DejaVuSans-79" d="M 2059 -325 
Q 1816 -950 1584 -1140 
Q 1353 -1331 966 -1331 
L 506 -1331 
L 506 -850 
L 844 -850 
Q 1081 -850 1212 -737 
Q 1344 -625 1503 -206 
L 1606 56 
L 191 3500 
L 800 3500 
L 1894 763 
L 2988 3500 
L 3597 3500 
L 2059 -325 
z
" transform="scale(0.015625)"/>
      <path id="DejaVuSans-29" d="M 513 4856 
L 1013 4856 
Q 1481 4119 1714 3412 
Q 1947 2706 1947 2009 
Q 1947 1309 1714 600 
Q 1481 -109 1013 -844 
L 513 -844 
Q 928 -128 1133 580 
Q 1338 1288 1338 2009 
Q 1338 2731 1133 3434 
Q 928 4138 513 4856 
z
" transform="scale(0.015625)"/>
     </defs>
     <use xlink:href="#DejaVuSans-47"/>
     <use xlink:href="#DejaVuSans-31" transform="translate(77.490234 0)"/>
     <use xlink:href="#DejaVuSans-34" transform="translate(141.113281 0)"/>
     <use xlink:href="#DejaVuSans-20" transform="translate(204.736328 0)"/>
     <use xlink:href="#DejaVuSans-28" transform="translate(236.523438 0)"/>
     <use xlink:href="#DejaVuSans-52" transform="translate(275.537109 0)"/>
     <use xlink:href="#DejaVuSans-65" transform="translate(340.519531 0)"/>
     <use xlink:href="#DejaVuSans-6c" transform="translate(402.042969 0)"/>
     <use xlink:href="#DejaVuSans-61" transform="translate(429.826172 0)"/>
     <use xlink:href="#DejaVuSans-79" transform="translate(491.105469 0)"/>
     <use xlink:href="#DejaVuSans-31" transform="translate(550.285156 0)"/>
     <use xlink:href="#DejaVuSans-29" transform="translate(613.908203 0)"/>
    </g>
    <!-- or G17 (Relay2) -->
    <g transform="translate(0 180.96125) scale(0.11 -0.11)">
     <defs>
      <path id="DejaVuSans-6f" d="M 1959 3097 
Q 1497 3097 1228 2736 
Q 959 2375 959 1747 
Q 959 1119 1226 758 
Q 1494 397 1959 397 
Q 2419 397 2687 759 
Q 2956 1122 2956 1747 
Q 2956 2369 2687 2733 
Q 2419 3097 1959 3097 
z
M 1959 3584 
Q 2709 3584 3137 3096 
Q 3566 2609 3566 1747 
Q 3566 888 3137 398 
Q 2709 -91 1959 -91 
Q 1206 -91 779 398 
Q 353 888 353 1747 
Q 353 2609 779 3096 
Q 1206 3584 1959 3584 
z
" transform="scale(0.015625)"/>
      <path id="DejaVuSans-72" d="M 2631 2963 
Q 2534 3019 2420 3045 
Q 2306 3072 2169 3072 
Q 1681 3072 1420 2755 
Q 1159 2438 1159 1844 
L 1159 0 
L 581 0 
L 581 3500 
L 1159 3500 
L 1159 2956 
Q 1341 3275 1631 3429 
Q 1922 3584 2338 3584 
Q 2397 3584 2469 3576 
Q 2541 3569 2628 3553 
L 2631 2963 
z
" transform="scale(0.015625)"/>
      <path id="DejaVuSans-37" d="M 525 4666 
L 3525 4666 
L 3525 4397 
L 1831 0 
L 1172 0 
L 2766 4134 
L 525 4134 
L 525 4666 
z
" transform="scale(0.015625)"/>
     </defs>
     <use xlink:href="#DejaVuSans-6f"/>
     <use xlink:href="#DejaVuSans-72" transform="translate(61.181641 0)"/>
     <use xlink:href="#DejaVuSans-20" transform="translate(102.294922 0)"/>
     <use xlink:href="#DejaVuSans-47" transform="translate(134.082031 0)"/>
     <use xlink:href="#DejaVuSans-31" transform="translate(211.572266 0)"/>
     <use xlink:href="#DejaVuSans-37" transform="translate(275.195312 0)"/>
     <use xlink:href="#DejaVuSans-20" transform="translate(338.818359 0)"/>
     <use xlink:href="#DejaVuSans-28" transform="translate(370.605469 0)"/>
     <use xlink:href="#DejaVuSans-52" transform="translate(409.619141 0)"/>
     <use xlink:href="#DejaVuSans-65" transform="translate(474.601562 0)"/>
     <use xlink:href="#DejaVuSans-6c" transform="translate(536.125 0)"/>
     <use xlink:href="#DejaVuSans-61" transform="translate(563.908203 0)"/>
     <use xlink:href="#DejaVuSans-79" transform="translate(625.1875 0)"/>
     <use xlink:href="#DejaVuSans-32" transform="translate(684.367188 0)"/>
     <use xlink:href="#DejaVuSans-29" transform="translate(747.990234 0)"/>
    </g>
   </g>
   <g id="patch_10">
    <path d="M 142.191696 193.92 
C 143.337374 193.92 144.436281 193.464818 145.246398 192.654701 
C 146.056514 191.844585 146.511696 190.745677 146.511696 189.6 
C 146.511696 188.454323 146.056514 187.355415 145.246398 186.545299 
C 144.436281 185.735182 143.337374 185.28 142.191696 185.28 
C 141.046019 185.28 139.947111 185.735182 139.136995 186.545299 
C 138.326879 187.355415 137.871696 188.454323 137.871696 189.6 
C 137.871696 190.745677 138.326879 191.844585 139.136995 192.654701 
C 139.947111 193.464818 141.046019 193.92 142.191696 193.92 
z
" clip-path="url(#p1543be0182)" style="fill: #ffffff; stroke: #000000; stroke-width: 2; stroke-linejoin: miter"/>
   </g>
   <g id="patch_11">
    <path d="M 142.191696 221.28 
C 143.337374 221.28 144.436281 220.824818 145.246398 220.014701 
C 146.056514 219.204585 146.511696 218.105677 146.511696 216.96 
C 146.511696 215.814323 146.056514 214.715415 145.246398 213.905299 
C 144.436281 213.095182 143.337374 212.64 142.191696 212.64 
C 141.046019 212.64 139.947111 213.095182 139.136995 213.905299 
C 138.326879 214.715415 137.871696 215.814323 137.871696 216.96 
C 137.871696 218.105677 138.326879 219.204585 139.136995 220.014701 
C 139.947111 220.824818 141.046019 221.28 142.191696 221.28 
z
" clip-path="url(#p1543be0182)" style="fill: #ffffff; stroke: #000000; stroke-width: 2; stroke-linejoin: miter"/>
   </g>
   <g id="text_2">
    <!-- M5Stack -->
    <g transform="translate(109.809598 140.100469) scale(0.11 -0.11)">
     <defs>
      <path id="DejaVuSans-4d" d="M 628 4666 
L 1569 4666 
L 2759 1491 
L 3956 4666 
L 4897 4666 
L 4897 0 
L 4281 0 
L 4281 4097 
L 3078 897 
L 2444 897 
L 1241 4097 
L 1241 0 
L 628 0 
L 628 4666 
z
" transform="scale(0.015625)"/>
      <path id="DejaVuSans-35" d="M 691 4666 
L 3169 4666 
L 3169 4134 
L 1269 4134 
L 1269 2991 
Q 1406 3038 1543 3061 
Q 1681 3084 1819 3084 
Q 2600 3084 3056 2656 
Q 3513 2228 3513 1497 
Q 3513 744 3044 326 
Q 2575 -91 1722 -91 
Q 1428 -91 1123 -41 
Q 819 9 494 109 
L 494 744 
Q 775 591 1075 516 
Q 1375 441 1709 441 
Q 2250 441 2565 725 
Q 2881 1009 2881 1497 
Q 2881 1984 2565 2268 
Q 2250 2553 1709 2553 
Q 1456 2553 1204 2497 
Q 953 2441 691 2322 
L 691 4666 
z
" transform="scale(0.015625)"/>
      <path id="DejaVuSans-74" d="M 1172 4494 
L 1172 3500 
L 2356 3500 
L 2356 3053 
L 1172 3053 
L 1172 1153 
Q 1172 725 1289 603 
Q 1406 481 1766 481 
L 2356 481 
L 2356 0 
L 1766 0 
Q 1100 0 847 248 
Q 594 497 594 1153 
L 594 3053 
L 172 3053 
L 172 3500 
L 594 3500 
L 594 4494 
L 1172 4494 
z
" transform="scale(0.015625)"/>
      <path id="DejaVuSans-63" d="M 3122 3366 
L 3122 2828 
Q 2878 2963 2633 3030 
Q 2388 3097 2138 3097 
Q 1578 3097 1268 2742 
Q 959 2388 959 1747 
Q 959 1106 1268 751 
Q 1578 397 2138 397 
Q 2388 397 2633 464 
Q 2878 531 3122 666 
L 3122 134 
Q 2881 22 2623 -34 
Q 2366 -91 2075 -91 
Q 1284 -91 818 406 
Q 353 903 353 1747 
Q 353 2603 823 3093 
Q 1294 3584 2113 3584 
Q 2378 3584 2631 3529 
Q 2884 3475 3122 3366 
z
" transform="scale(0.015625)"/>
      <path id="DejaVuSans-6b" d="M 581 4863 
L 1159 4863 
L 1159 1991 
L 2875 3500 
L 3609 3500 
L 1753 1863 
L 3688 0 
L 2938 0 
L 1159 1709 
L 1159 0 
L 581 0 
L 581 4863 
z
" transform="scale(0.015625)"/>
     </defs>
     <use xlink:href="#DejaVuSans-4d"/>
     <use xlink:href="#DejaVuSans-35" transform="translate(86.279297 0)"/>
     <use xlink:href="#DejaVuSans-53" transform="translate(149.902344 0)"/>
     <use xlink:href="#DejaVuSans-74" transform="translate(213.378906 0)"/>
     <use xlink:href="#DejaVuSans-61" transform="translate(252.587891 0)"/>
     <use xlink:href="#DejaVuSans-63" transform="translate(313.867188 0)"/>
     <use xlink:href="#DejaVuSans-6b" transform="translate(368.847656 0)"/>
    </g>
    <!-- Mini Relay -->
    <g transform="translate(105.134598 150.746406) scale(0.11 -0.11)">
     <defs>
      <path id="DejaVuSans-69" d="M 603 3500 
L 1178 3500 
L 1178 0 
L 603 0 
L 603 3500 
z
M 603 4863 
L 1178 4863 
L 1178 4134 
L 603 4134 
L 603 4863 
z
" transform="scale(0.015625)"/>
      <path id="DejaVuSans-6e" d="M 3513 2113 
L 3513 0 
L 2938 0 
L 2938 2094 
Q 2938 2591 2744 2837 
Q 2550 3084 2163 3084 
Q 1697 3084 1428 2787 
Q 1159 2491 1159 1978 
L 1159 0 
L 581 0 
L 581 3500 
L 1159 3500 
L 1159 2956 
Q 1366 3272 1645 3428 
Q 1925 3584 2291 3584 
Q 2894 3584 3203 3211 
Q 3513 2838 3513 2113 
z
" transform="scale(0.015625)"/>
     </defs>
     <use xlink:href="#DejaVuSans-4d"/>
     <use xlink:href="#DejaVuSans-69" transform="translate(86.279297 0)"/>
     <use xlink:href="#DejaVuSans-6e" transform="translate(114.0625 0)"/>
     <use xlink:href="#DejaVuSans-69" transform="translate(177.441406 0)"/>
     <use xlink:href="#DejaVuSans-20" transform="translate(205.224609 0)"/>
     <use xlink:href="#DejaVuSans-52" transform="translate(237.011719 0)"/>
     <use xlink:href="#DejaVuSans-65" transform="translate(301.994141 0)"/>
     <use xlink:href="#DejaVuSans-6c" transform="translate(363.517578 0)"/>
     <use xlink:href="#DejaVuSans-61" transform="translate(391.300781 0)"/>
     <use xlink:href="#DejaVuSans-79" transform="translate(452.580078 0)"/>
    </g>
    <!-- 3A/30VDC -->
    <g transform="translate(105.330536 161.392344) scale(0.11 -0.11)">
     <defs>
      <path id="DejaVuSans-41" d="M 2188 4044 
L 1331 1722 
L 3047 1722 
L 2188 4044 
z
M 1831 4666 
L 2547 4666 
L 4325 0 
L 3669 0 
L 3244 1197 
L 1141 1197 
L 716 0 
L 50 0 
L 1831 4666 
z
" transform="scale(0.015625)"/>
      <path id="DejaVuSans-2f" d="M 1625 4666 
L 2156 4666 
L 531 -594 
L 0 -594 
L 1625 4666 
z
" transform="scale(0.015625)"/>
      <path id="DejaVuSans-30" d="M 2034 4250 
Q 1547 4250 1301 3770 
Q 1056 3291 1056 2328 
Q 1056 1369 1301 889 
Q 1547 409 2034 409 
Q 2525 409 2770 889 
Q 3016 1369 3016 2328 
Q 3016 3291 2770 3770 
Q 2525 4250 2034 4250 
z
M 2034 4750 
Q 2819 4750 3233 4129 
Q 3647 3509 3647 2328 
Q 3647 1150 3233 529 
Q 2819 -91 2034 -91 
Q 1250 -91 836 529 
Q 422 1150 422 2328 
Q 422 3509 836 4129 
Q 1250 4750 2034 4750 
z
" transform="scale(0.015625)"/>
      <path id="DejaVuSans-56" d="M 1831 0 
L 50 4666 
L 709 4666 
L 2188 738 
L 3669 4666 
L 4325 4666 
L 2547 0 
L 1831 0 
z
" transform="scale(0.015625)"/>
      <path id="DejaVuSans-44" d="M 1259 4147 
L 1259 519 
L 2022 519 
Q 2988 519 3436 956 
Q 3884 1394 3884 2338 
Q 3884 3275 3436 3711 
Q 2988 4147 2022 4147 
L 1259 4147 
z
M 628 4666 
L 1925 4666 
Q 3281 4666 3915 4102 
Q 4550 3538 4550 2338 
Q 4550 1131 3912 565 
Q 3275 0 1925 0 
L 628 0 
L 628 4666 
z
" transform="scale(0.015625)"/>
      <path id="DejaVuSans-43" d="M 4122 4306 
L 4122 3641 
Q 3803 3938 3442 4084 
Q 3081 4231 2675 4231 
Q 1875 4231 1450 3742 
Q 1025 3253 1025 2328 
Q 1025 1406 1450 917 
Q 1875 428 2675 428 
Q 3081 428 3442 575 
Q 3803 722 4122 1019 
L 4122 359 
Q 3791 134 3420 21 
Q 3050 -91 2638 -91 
Q 1578 -91 968 557 
Q 359 1206 359 2328 
Q 359 3453 968 4101 
Q 1578 4750 2638 4750 
Q 3056 4750 3426 4639 
Q 3797 4528 4122 4306 
z
" transform="scale(0.015625)"/>
     </defs>
     <use xlink:href="#DejaVuSans-33"/>
     <use xlink:href="#DejaVuSans-41" transform="translate(63.623047 0)"/>
     <use xlink:href="#DejaVuSans-2f" transform="translate(132.03125 0)"/>
     <use xlink:href="#DejaVuSans-33" transform="translate(165.722656 0)"/>
     <use xlink:href="#DejaVuSans-30" transform="translate(229.345703 0)"/>
     <use xlink:href="#DejaVuSans-56" transform="translate(292.96875 0)"/>
     <use xlink:href="#DejaVuSans-44" transform="translate(361.376953 0)"/>
     <use xlink:href="#DejaVuSans-43" transform="translate(438.378906 0)"/>
    </g>
   </g>
   <g id="text_3">
    <!-- 12V -->
    <g transform="translate(131.430603 179.238281) scale(0.11 -0.11)">
     <use xlink:href="#DejaVuSans-31"/>
     <use xlink:href="#DejaVuSans-32" transform="translate(63.623047 0)"/>
     <use xlink:href="#DejaVuSans-56" transform="translate(127.246094 0)"/>
    </g>
   </g>
   <g id="text_4">
    <!-- Peristaltic -->
    <g transform="translate(241.273493 14.100469) scale(0.11 -0.11)">
     <defs>
      <path id="DejaVuSans-73" d="M 2834 3397 
L 2834 2853 
Q 2591 2978 2328 3040 
Q 2066 3103 1784 3103 
Q 1356 3103 1142 2972 
Q 928 2841 928 2578 
Q 928 2378 1081 2264 
Q 1234 2150 1697 2047 
L 1894 2003 
Q 2506 1872 2764 1633 
Q 3022 1394 3022 966 
Q 3022 478 2636 193 
Q 2250 -91 1575 -91 
Q 1294 -91 989 -36 
Q 684 19 347 128 
L 347 722 
Q 666 556 975 473 
Q 1284 391 1588 391 
Q 1994 391 2212 530 
Q 2431 669 2431 922 
Q 2431 1156 2273 1281 
Q 2116 1406 1581 1522 
L 1381 1569 
Q 847 1681 609 1914 
Q 372 2147 372 2553 
Q 372 3047 722 3315 
Q 1072 3584 1716 3584 
Q 2034 3584 2315 3537 
Q 2597 3491 2834 3397 
z
" transform="scale(0.015625)"/>
     </defs>
     <use xlink:href="#DejaVuSans-50"/>
     <use xlink:href="#DejaVuSans-65" transform="translate(56.677734 0)"/>
     <use xlink:href="#DejaVuSans-72" transform="translate(118.201172 0)"/>
     <use xlink:href="#DejaVuSans-69" transform="translate(159.314453 0)"/>
     <use xlink:href="#DejaVuSans-73" transform="translate(187.097656 0)"/>
     <use xlink:href="#DejaVuSans-74" transform="translate(239.197266 0)"/>
     <use xlink:href="#DejaVuSans-61" transform="translate(278.40625 0)"/>
     <use xlink:href="#DejaVuSans-6c" transform="translate(339.685547 0)"/>
     <use xlink:href="#DejaVuSans-74" transform="translate(367.46875 0)"/>
     <use xlink:href="#DejaVuSans-69" transform="translate(406.677734 0)"/>
     <use xlink:href="#DejaVuSans-63" transform="translate(434.460938 0)"/>
    </g>
    <!-- Pump 12V -->
    <g transform="translate(240.127946 24.746406) scale(0.11 -0.11)">
     <defs>
      <path id="DejaVuSans-75" d="M 544 1381 
L 544 3500 
L 1119 3500 
L 1119 1403 
Q 1119 906 1312 657 
Q 1506 409 1894 409 
Q 2359 409 2629 706 
Q 2900 1003 2900 1516 
L 2900 3500 
L 3475 3500 
L 3475 0 
L 2900 0 
L 2900 538 
Q 2691 219 2414 64 
Q 2138 -91 1772 -91 
Q 1169 -91 856 284 
Q 544 659 544 1381 
z
M 1991 3584 
L 1991 3584 
z
" transform="scale(0.015625)"/>
      <path id="DejaVuSans-6d" d="M 3328 2828 
Q 3544 3216 3844 3400 
Q 4144 3584 4550 3584 
Q 5097 3584 5394 3201 
Q 5691 2819 5691 2113 
L 5691 0 
L 5113 0 
L 5113 2094 
Q 5113 2597 4934 2840 
Q 4756 3084 4391 3084 
Q 3944 3084 3684 2787 
Q 3425 2491 3425 1978 
L 3425 0 
L 2847 0 
L 2847 2094 
Q 2847 2600 2669 2842 
Q 2491 3084 2119 3084 
Q 1678 3084 1418 2786 
Q 1159 2488 1159 1978 
L 1159 0 
L 581 0 
L 581 3500 
L 1159 3500 
L 1159 2956 
Q 1356 3278 1631 3431 
Q 1906 3584 2284 3584 
Q 2666 3584 2933 3390 
Q 3200 3197 3328 2828 
z
" transform="scale(0.015625)"/>
      <path id="DejaVuSans-70" d="M 1159 525 
L 1159 -1331 
L 581 -1331 
L 581 3500 
L 1159 3500 
L 1159 2969 
Q 1341 3281 1617 3432 
Q 1894 3584 2278 3584 
Q 2916 3584 3314 3078 
Q 3713 2572 3713 1747 
Q 3713 922 3314 415 
Q 2916 -91 2278 -91 
Q 1894 -91 1617 61 
Q 1341 213 1159 525 
z
M 3116 1747 
Q 3116 2381 2855 2742 
Q 2594 3103 2138 3103 
Q 1681 3103 1420 2742 
Q 1159 2381 1159 1747 
Q 1159 1113 1420 752 
Q 1681 391 2138 391 
Q 2594 391 2855 752 
Q 3116 1113 3116 1747 
z
" transform="scale(0.015625)"/>
     </defs>
     <use xlink:href="#DejaVuSans-50"/>
     <use xlink:href="#DejaVuSans-75" transform="translate(58.552734 0)"/>
     <use xlink:href="#DejaVuSans-6d" transform="translate(121.931641 0)"/>
     <use xlink:href="#DejaVuSans-70" transform="translate(219.34375 0)"/>
     <use xlink:href="#DejaVuSans-20" transform="translate(282.820312 0)"/>
     <use xlink:href="#DejaVuSans-31" transform="translate(314.607422 0)"/>
     <use xlink:href="#DejaVuSans-32" transform="translate(378.230469 0)"/>
     <use xlink:href="#DejaVuSans-56" transform="translate(441.853516 0)"/>
    </g>
    <!-- ~80mA -->
    <g transform="translate(247.464431 35.392344) scale(0.11 -0.11)">
     <defs>
      <path id="DejaVuSans-7e" d="M 4684 2553 
L 4684 1997 
Q 4356 1750 4076 1644 
Q 3797 1538 3494 1538 
Q 3150 1538 2694 1722 
Q 2659 1734 2644 1741 
Q 2622 1750 2575 1766 
Q 2091 1959 1797 1959 
Q 1522 1959 1253 1839 
Q 984 1719 678 1459 
L 678 2016 
Q 1006 2263 1286 2370 
Q 1566 2478 1869 2478 
Q 2213 2478 2672 2291 
Q 2703 2278 2719 2272 
Q 2744 2263 2788 2247 
Q 3272 2053 3566 2053 
Q 3834 2053 4098 2172 
Q 4363 2291 4684 2553 
z
" transform="scale(0.015625)"/>
      <path id="DejaVuSans-38" d="M 2034 2216 
Q 1584 2216 1326 1975 
Q 1069 1734 1069 1313 
Q 1069 891 1326 650 
Q 1584 409 2034 409 
Q 2484 409 2743 651 
Q 3003 894 3003 1313 
Q 3003 1734 2745 1975 
Q 2488 2216 2034 2216 
z
M 1403 2484 
Q 997 2584 770 2862 
Q 544 3141 544 3541 
Q 544 4100 942 4425 
Q 1341 4750 2034 4750 
Q 2731 4750 3128 4425 
Q 3525 4100 3525 3541 
Q 3525 3141 3298 2862 
Q 3072 2584 2669 2484 
Q 3125 2378 3379 2068 
Q 3634 1759 3634 1313 
Q 3634 634 3220 271 
Q 2806 -91 2034 -91 
Q 1263 -91 848 271 
Q 434 634 434 1313 
Q 434 1759 690 2068 
Q 947 2378 1403 2484 
z
M 1172 3481 
Q 1172 3119 1398 2916 
Q 1625 2713 2034 2713 
Q 2441 2713 2670 2916 
Q 2900 3119 2900 3481 
Q 2900 3844 2670 4047 
Q 2441 4250 2034 4250 
Q 1625 4250 1398 4047 
Q 1172 3844 1172 3481 
z
" transform="scale(0.015625)"/>
     </defs>
     <use xlink:href="#DejaVuSans-7e"/>
     <use xlink:href="#DejaVuSans-38" transform="translate(83.789062 0)"/>
     <use xlink:href="#DejaVuSans-30" transform="translate(147.412109 0)"/>
     <use xlink:href="#DejaVuSans-6d" transform="translate(211.035156 0)"/>
     <use xlink:href="#DejaVuSans-41" transform="translate(308.447266 0)"/>
    </g>
   </g>
   <g id="text_5">
    <!-- 1N4007 -->
    <g transform="translate(246.580134 33.746406) scale(0.11 -0.11)">
     <defs>
      <path id="DejaVuSans-4e" d="M 628 4666 
L 1478 4666 
L 3547 763 
L 3547 4666 
L 4159 4666 
L 4159 0 
L 3309 0 
L 1241 3903 
L 1241 0 
L 628 0 
L 628 4666 
z
" transform="scale(0.015625)"/>
     </defs>
     <use xlink:href="#DejaVuSans-31"/>
     <use xlink:href="#DejaVuSans-4e" transform="translate(63.623047 0)"/>
     <use xlink:href="#DejaVuSans-34" transform="translate(138.427734 0)"/>
     <use xlink:href="#DejaVuSans-30" transform="translate(202.050781 0)"/>
     <use xlink:href="#DejaVuSans-30" transform="translate(265.673828 0)"/>
     <use xlink:href="#DejaVuSans-37" transform="translate(329.296875 0)"/>
    </g>
    <!-- flyback -->
    <g transform="translate(248.40115 44.392344) scale(0.11 -0.11)">
     <defs>
      <path id="DejaVuSans-66" d="M 2375 4863 
L 2375 4384 
L 1825 4384 
Q 1516 4384 1395 4259 
Q 1275 4134 1275 3809 
L 1275 3500 
L 2222 3500 
L 2222 3053 
L 1275 3053 
L 1275 0 
L 697 0 
L 697 3053 
L 147 3053 
L 147 3500 
L 697 3500 
L 697 3744 
Q 697 4328 969 4595 
Q 1241 4863 1831 4863 
L 2375 4863 
z
" transform="scale(0.015625)"/>
      <path id="DejaVuSans-62" d="M 3116 1747 
Q 3116 2381 2855 2742 
Q 2594 3103 2138 3103 
Q 1681 3103 1420 2742 
Q 1159 2381 1159 1747 
Q 1159 1113 1420 752 
Q 1681 391 2138 391 
Q 2594 391 2855 752 
Q 3116 1113 3116 1747 
z
M 1159 2969 
Q 1341 3281 1617 3432 
Q 1894 3584 2278 3584 
Q 2916 3584 3314 3078 
Q 3713 2572 3713 1747 
Q 3713 922 3314 415 
Q 2916 -91 2278 -91 
Q 1894 -91 1617 61 
Q 1341 213 1159 525 
L 1159 0 
L 581 0 
L 581 4863 
L 1159 4863 
L 1159 2969 
z
" transform="scale(0.015625)"/>
     </defs>
     <use xlink:href="#DejaVuSans-66"/>
     <use xlink:href="#DejaVuSans-6c" transform="translate(35.205078 0)"/>
     <use xlink:href="#DejaVuSans-79" transform="translate(62.988281 0)"/>
     <use xlink:href="#DejaVuSans-62" transform="translate(122.167969 0)"/>
     <use xlink:href="#DejaVuSans-61" transform="translate(185.644531 0)"/>
     <use xlink:href="#DejaVuSans-63" transform="translate(246.923828 0)"/>
     <use xlink:href="#DejaVuSans-6b" transform="translate(301.904297 0)"/>
    </g>
   </g>
   <g id="text_6">
    <!-- SucuStation — Relay + Pump Circuit -->
    <g transform="translate(325.791696 78.592344) scale(0.11 -0.11)">
     <defs>
      <path id="DejaVuSans-2014" d="M 313 1978 
L 6088 1978 
L 6088 1528 
L 313 1528 
L 313 1978 
z
" transform="scale(0.015625)"/>
      <path id="DejaVuSans-2b" d="M 2944 4013 
L 2944 2272 
L 4684 2272 
L 4684 1741 
L 2944 1741 
L 2944 0 
L 2419 0 
L 2419 1741 
L 678 1741 
L 678 2272 
L 2419 2272 
L 2419 4013 
L 2944 4013 
z
" transform="scale(0.015625)"/>
     </defs>
     <use xlink:href="#DejaVuSans-53"/>
     <use xlink:href="#DejaVuSans-75" transform="translate(63.476562 0)"/>
     <use xlink:href="#DejaVuSans-63" transform="translate(126.855469 0)"/>
     <use xlink:href="#DejaVuSans-75" transform="translate(181.835938 0)"/>
     <use xlink:href="#DejaVuSans-53" transform="translate(245.214844 0)"/>
     <use xlink:href="#DejaVuSans-74" transform="translate(308.691406 0)"/>
     <use xlink:href="#DejaVuSans-61" transform="translate(347.900391 0)"/>
     <use xlink:href="#DejaVuSans-74" transform="translate(409.179688 0)"/>
     <use xlink:href="#DejaVuSans-69" transform="translate(448.388672 0)"/>
     <use xlink:href="#DejaVuSans-6f" transform="translate(476.171875 0)"/>
     <use xlink:href="#DejaVuSans-6e" transform="translate(537.353516 0)"/>
     <use xlink:href="#DejaVuSans-20" transform="translate(600.732422 0)"/>
     <use xlink:href="#DejaVuSans-2014" transform="translate(632.519531 0)"/>
     <use xlink:href="#DejaVuSans-20" transform="translate(732.519531 0)"/>
     <use xlink:href="#DejaVuSans-52" transform="translate(764.306641 0)"/>
     <use xlink:href="#DejaVuSans-65" transform="translate(829.289062 0)"/>
     <use xlink:href="#DejaVuSans-6c" transform="translate(890.8125 0)"/>
     <use xlink:href="#DejaVuSans-61" transform="translate(918.595703 0)"/>
     <use xlink:href="#DejaVuSans-79" transform="translate(979.875 0)"/>
     <use xlink:href="#DejaVuSans-20" transform="translate(1039.054688 0)"/>
     <use xlink:href="#DejaVuSans-2b" transform="translate(1070.841797 0)"/>
     <use xlink:href="#DejaVuSans-20" transform="translate(1154.630859 0)"/>
     <use xlink:href="#DejaVuSans-50" transform="translate(1186.417969 0)"/>
     <use xlink:href="#DejaVuSans-75" transform="translate(1244.970703 0)"/>
     <use xlink:href="#DejaVuSans-6d" transform="translate(1308.349609 0)"/>
     <use xlink:href="#DejaVuSans-70" transform="translate(1405.761719 0)"/>
     <use xlink:href="#DejaVuSans-20" transform="translate(1469.238281 0)"/>
     <use xlink:href="#DejaVuSans-43" transform="translate(1501.025391 0)"/>
     <use xlink:href="#DejaVuSans-69" transform="translate(1570.849609 0)"/>
     <use xlink:href="#DejaVuSans-72" transform="translate(1598.632812 0)"/>
     <use xlink:href="#DejaVuSans-63" transform="translate(1637.496094 0)"/>
     <use xlink:href="#DejaVuSans-75" transform="translate(1692.476562 0)"/>
     <use xlink:href="#DejaVuSans-69" transform="translate(1755.855469 0)"/>
     <use xlink:href="#DejaVuSans-74" transform="translate(1783.638672 0)"/>
    </g>
    <!-- (identical for Relay 1 → Pump 1 and Relay 2 → Pump 2) -->
    <g transform="translate(325.791696 89.238281) scale(0.11 -0.11)">
     <defs>
      <path id="DejaVuSans-64" d="M 2906 2969 
L 2906 4863 
L 3481 4863 
L 3481 0 
L 2906 0 
L 2906 525 
Q 2725 213 2448 61 
Q 2172 -91 1784 -91 
Q 1150 -91 751 415 
Q 353 922 353 1747 
Q 353 2572 751 3078 
Q 1150 3584 1784 3584 
Q 2172 3584 2448 3432 
Q 2725 3281 2906 2969 
z
M 947 1747 
Q 947 1113 1208 752 
Q 1469 391 1925 391 
Q 2381 391 2643 752 
Q 2906 1113 2906 1747 
Q 2906 2381 2643 2742 
Q 2381 3103 1925 3103 
Q 1469 3103 1208 2742 
Q 947 2381 947 1747 
z
" transform="scale(0.015625)"/>
      <path id="DejaVuSans-2192" d="M 5050 2147 
L 5050 1866 
L 3822 638 
L 3447 1013 
L 4175 1741 
L 366 1741 
L 366 2272 
L 4175 2272 
L 3447 3000 
L 3822 3375 
L 5050 2147 
z
" transform="scale(0.015625)"/>
     </defs>
     <use xlink:href="#DejaVuSans-28"/>
     <use xlink:href="#DejaVuSans-69" transform="translate(39.013672 0)"/>
     <use xlink:href="#DejaVuSans-64" transform="translate(66.796875 0)"/>
     <use xlink:href="#DejaVuSans-65" transform="translate(130.273438 0)"/>
     <use xlink:href="#DejaVuSans-6e" transform="translate(191.796875 0)"/>
     <use xlink:href="#DejaVuSans-74" transform="translate(255.175781 0)"/>
     <use xlink:href="#DejaVuSans-69" transform="translate(294.384766 0)"/>
     <use xlink:href="#DejaVuSans-63" transform="translate(322.167969 0)"/>
     <use xlink:href="#DejaVuSans-61" transform="translate(377.148438 0)"/>
     <use xlink:href="#DejaVuSans-6c" transform="translate(438.427734 0)"/>
     <use xlink:href="#DejaVuSans-20" transform="translate(466.210938 0)"/>
     <use xlink:href="#DejaVuSans-66" transform="translate(497.998047 0)"/>
     <use xlink:href="#DejaVuSans-6f" transform="translate(533.203125 0)"/>
     <use xlink:href="#DejaVuSans-72" transform="translate(594.384766 0)"/>
     <use xlink:href="#DejaVuSans-20" transform="translate(635.498047 0)"/>
     <use xlink:href="#DejaVuSans-52" transform="translate(667.285156 0)"/>
     <use xlink:href="#DejaVuSans-65" transform="translate(732.267578 0)"/>
     <use xlink:href="#DejaVuSans-6c" transform="translate(793.791016 0)"/>
     <use xlink:href="#DejaVuSans-61" transform="translate(821.574219 0)"/>
     <use xlink:href="#DejaVuSans-79" transform="translate(882.853516 0)"/>
     <use xlink:href="#DejaVuSans-20" transform="translate(942.033203 0)"/>
     <use xlink:href="#DejaVuSans-31" transform="translate(973.820312 0)"/>
     <use xlink:href="#DejaVuSans-20" transform="translate(1037.443359 0)"/>
     <use xlink:href="#DejaVuSans-2192" transform="translate(1069.230469 0)"/>
     <use xlink:href="#DejaVuSans-20" transform="translate(1153.019531 0)"/>
     <use xlink:href="#DejaVuSans-50" transform="translate(1184.806641 0)"/>
     <use xlink:href="#DejaVuSans-75" transform="translate(1243.359375 0)"/>
     <use xlink:href="#DejaVuSans-6d" transform="translate(1306.738281 0)"/>
     <use xlink:href="#DejaVuSans-70" transform="translate(1404.150391 0)"/>
     <use xlink:href="#DejaVuSans-20" transform="translate(1467.626953 0)"/>
     <use xlink:href="#DejaVuSans-31" transform="translate(1499.414062 0)"/>
     <use xlink:href="#DejaVuSans-20" transform="translate(1563.037109 0)"/>
     <use xlink:href="#DejaVuSans-61" transform="translate(1594.824219 0)"/>
     <use xlink:href="#DejaVuSans-6e" transform="translate(1656.103516 0)"/>
     <use xlink:href="#DejaVuSans-64" transform="translate(1719.482422 0)"/>
     <use xlink:href="#DejaVuSans-20" transform="translate(1782.958984 0)"/>
     <use xlink:href="#DejaVuSans-52" transform="translate(1814.746094 0)"/>
     <use xlink:href="#DejaVuSans-65" transform="translate(1879.728516 0)"/>
     <use xlink:href="#DejaVuSans-6c" transform="translate(1941.251953 0)"/>
     <use xlink:href="#DejaVuSans-61" transform="translate(1969.035156 0)"/>
     <use xlink:href="#DejaVuSans-79" transform="translate(2030.314453 0)"/>
     <use xlink:href="#DejaVuSans-20" transform="translate(2089.494141 0)"/>
     <use xlink:href="#DejaVuSans-32" transform="translate(2121.28125 0)"/>
     <use xlink:href="#DejaVuSans-20" transform="translate(2184.904297 0)"/>
     <use xlink:href="#DejaVuSans-2192" transform="translate(2216.691406 0)"/>
     <use xlink:href="#DejaVuSans-20" transform="translate(2300.480469 0)"/>
     <use xlink:href="#DejaVuSans-50" transform="translate(2332.267578 0)"/>
     <use xlink:href="#DejaVuSans-75" transform="translate(2390.820312 0)"/>
     <use xlink:href="#DejaVuSans-6d" transform="translate(2454.199219 0)"/>
     <use xlink:href="#DejaVuSans-70" transform="translate(2551.611328 0)"/>
     <use xlink:href="#DejaVuSans-20" transform="translate(2615.087891 0)"/>
     <use xlink:href="#DejaVuSans-32" transform="translate(2646.875 0)"/>
     <use xlink:href="#DejaVuSans-29" transform="translate(2710.498047 0)"/>
    </g>
   </g>
   <g id="patch_12">
    <path d="M 214.191696 61.98 
C 214.907745 61.98 215.594562 61.695511 216.100885 61.189188 
C 216.607207 60.682866 216.891696 59.996048 216.891696 59.28 
C 216.891696 58.563952 216.607207 57.877134 216.100885 57.370812 
C 215.594562 56.864489 214.907745 56.58 214.191696 56.58 
C 213.475648 56.58 212.788831 56.864489 212.282508 57.370812 
C 211.776185 57.877134 211.491696 58.563952 211.491696 59.28 
C 211.491696 59.996048 211.776185 60.682866 212.282508 61.189188 
C 212.788831 61.695511 213.475648 61.98 214.191696 61.98 
z
" clip-path="url(#p1543be0182)" style="stroke: #000000; stroke-width: 2; stroke-linejoin: miter"/>
   </g>
  </g>
 </g>
 <defs>
  <clipPath id="p1543be0182">
   <rect x="2.823719" y="0" width="587.819978" height="423.96"/>
  </clipPath>
 </defs>
</svg>
